<svg width="300" height="71" viewBox="0 0 300 71" fill="none" xmlns="http://www.w3.org/2000/svg">
<path d="M85.64 10.6799C85.64 9.81322 85.7933 8.95988 86.1 8.11988C86.4067 7.26655 86.8467 6.50655 87.42 5.83988C88.0067 5.17322 88.72 4.63322 89.56 4.21988C90.4 3.80655 91.36 3.59988 92.44 3.59988C93.7067 3.59988 94.8 3.88655 95.72 4.45988C96.6533 5.03322 97.34 5.77988 97.78 6.69988L95.66 8.15988C95.5 7.75988 95.2933 7.42655 95.04 7.15988C94.7867 6.87988 94.5067 6.65988 94.2 6.49988C93.9067 6.33988 93.6 6.22655 93.28 6.15988C92.96 6.07988 92.6533 6.03988 92.36 6.03988C91.7067 6.03988 91.1333 6.17988 90.64 6.45988C90.1467 6.73988 89.7333 7.10655 89.4 7.55988C89.08 7.99988 88.8333 8.50655 88.66 9.07988C88.5 9.63988 88.42 10.1999 88.42 10.7599C88.42 11.3865 88.5133 11.9932 88.7 12.5799C88.9 13.1532 89.1733 13.6599 89.52 14.0999C89.88 14.5399 90.3067 14.8932 90.8 15.1599C91.2933 15.4265 91.8333 15.5599 92.42 15.5599C92.7267 15.5599 93.04 15.5199 93.36 15.4399C93.68 15.3599 93.9867 15.2332 94.28 15.0599C94.5867 14.8865 94.8667 14.6665 95.12 14.3999C95.3733 14.1199 95.58 13.7865 95.74 13.3999L98 14.6999C97.7867 15.2332 97.4733 15.7065 97.06 16.1199C96.66 16.5199 96.2 16.8599 95.68 17.1399C95.16 17.4199 94.6133 17.6332 94.04 17.7799C93.4667 17.9265 92.9 17.9999 92.34 17.9999C91.3533 17.9999 90.4467 17.7865 89.62 17.3599C88.8067 16.9332 88.1 16.3799 87.5 15.6999C86.9133 15.0065 86.4533 14.2265 86.12 13.3599C85.8 12.4799 85.64 11.5865 85.64 10.6799ZM102.478 18.0799C101.972 18.0799 101.498 17.9999 101.058 17.8399C100.618 17.6665 100.238 17.4332 99.9184 17.1399C99.5984 16.8332 99.3451 16.4799 99.1584 16.0799C98.9851 15.6799 98.8984 15.2399 98.8984 14.7599C98.8984 14.2665 99.0051 13.8132 99.2184 13.3999C99.4451 12.9732 99.7518 12.6132 100.138 12.3199C100.538 12.0265 101.012 11.7999 101.558 11.6399C102.105 11.4665 102.705 11.3799 103.358 11.3799C103.825 11.3799 104.278 11.4199 104.718 11.4999C105.172 11.5799 105.572 11.6932 105.918 11.8399V11.2399C105.918 10.5465 105.718 10.0132 105.318 9.63988C104.932 9.26655 104.352 9.07988 103.578 9.07988C103.018 9.07988 102.472 9.17988 101.938 9.37988C101.405 9.57988 100.858 9.87322 100.298 10.2599L99.4784 8.55988C100.825 7.66655 102.278 7.21988 103.838 7.21988C105.345 7.21988 106.512 7.59322 107.338 8.33988C108.178 9.07322 108.598 10.1399 108.598 11.5399V14.7999C108.598 15.0799 108.652 15.2799 108.758 15.3999C108.865 15.5199 109.052 15.5865 109.318 15.5999V17.8799C109.065 17.9332 108.825 17.9665 108.598 17.9799C108.385 18.0065 108.198 18.0199 108.038 18.0199C107.532 18.0065 107.145 17.8932 106.878 17.6799C106.612 17.4532 106.445 17.1532 106.378 16.7799L106.318 16.1999C105.852 16.8132 105.285 17.2799 104.618 17.5999C103.952 17.9199 103.238 18.0799 102.478 18.0799ZM103.238 16.1199C103.692 16.1199 104.118 16.0399 104.518 15.8799C104.932 15.7199 105.252 15.5065 105.478 15.2399C105.772 15.0132 105.918 14.7599 105.918 14.4799V13.2799C105.598 13.1599 105.252 13.0665 104.878 12.9999C104.505 12.9199 104.145 12.8799 103.798 12.8799C103.105 12.8799 102.538 13.0399 102.098 13.3599C101.658 13.6665 101.438 14.0599 101.438 14.5399C101.438 14.9932 101.612 15.3732 101.958 15.6799C102.305 15.9732 102.732 16.1199 103.238 16.1199ZM111.141 3.27988H113.821V14.3999C113.821 15.2132 114.188 15.6199 114.921 15.6199C115.068 15.6199 115.234 15.5932 115.421 15.5399C115.621 15.4865 115.808 15.4265 115.981 15.3599L116.341 17.4999C115.981 17.6732 115.561 17.8065 115.081 17.8999C114.601 17.9932 114.168 18.0399 113.781 18.0399C112.941 18.0399 112.288 17.8199 111.821 17.3799C111.368 16.9265 111.141 16.2865 111.141 15.4599V3.27988ZM117.489 3.27988H120.169V14.3999C120.169 15.2132 120.535 15.6199 121.269 15.6199C121.415 15.6199 121.582 15.5932 121.769 15.5399C121.969 15.4865 122.155 15.4265 122.329 15.3599L122.689 17.4999C122.329 17.6732 121.909 17.8065 121.429 17.8999C120.949 17.9932 120.515 18.0399 120.129 18.0399C119.289 18.0399 118.635 17.8199 118.169 17.3799C117.715 16.9265 117.489 16.2865 117.489 15.4599V3.27988ZM126.368 17.8799L131.968 3.67988H134.208L139.788 17.8799H136.868L135.568 14.3399H130.588L129.288 17.8799H126.368ZM133.088 6.65988L131.048 12.3999H135.068L133.088 6.65988ZM150.764 17.8799H148.084V11.9999C148.084 11.1599 147.938 10.5465 147.644 10.1599C147.351 9.77322 146.944 9.57988 146.424 9.57988C146.158 9.57988 145.884 9.63322 145.604 9.73988C145.324 9.84655 145.058 9.99988 144.804 10.1999C144.564 10.3865 144.344 10.6132 144.144 10.8799C143.944 11.1465 143.798 11.4399 143.704 11.7599V17.8799H141.024V7.39988H143.444V9.33988C143.831 8.67322 144.391 8.15322 145.124 7.77988C145.858 7.40655 146.684 7.21988 147.604 7.21988C148.258 7.21988 148.791 7.33988 149.204 7.57988C149.618 7.81988 149.938 8.13322 150.164 8.51988C150.391 8.90655 150.544 9.34655 150.624 9.83988C150.718 10.3332 150.764 10.8332 150.764 11.3399V17.8799ZM153.039 19.9199C153.279 19.9865 153.499 20.0332 153.699 20.0599C153.899 20.0865 154.073 20.0999 154.219 20.0999C154.393 20.0999 154.546 20.0665 154.679 19.9999C154.813 19.9465 154.939 19.8399 155.059 19.6799C155.193 19.5199 155.319 19.2932 155.439 18.9999C155.573 18.7199 155.713 18.3465 155.859 17.8799L151.699 7.39988H154.459L157.319 15.5599L159.839 7.39988H162.359L157.939 19.9599C157.659 20.7599 157.213 21.3732 156.599 21.7999C155.986 22.2399 155.273 22.4599 154.459 22.4599C153.993 22.4599 153.519 22.3865 153.039 22.2399V19.9199ZM170.078 17.3399C169.718 17.4999 169.271 17.6599 168.738 17.8199C168.218 17.9799 167.671 18.0599 167.098 18.0599C166.725 18.0599 166.371 18.0132 166.038 17.9199C165.718 17.8265 165.431 17.6799 165.178 17.4799C164.938 17.2665 164.745 16.9999 164.598 16.6799C164.451 16.3465 164.378 15.9465 164.378 15.4799V9.45988H163.018V7.39988H164.378V3.99988H167.058V7.39988H169.278V9.45988H167.058V14.5799C167.058 14.9532 167.158 15.2199 167.358 15.3799C167.558 15.5265 167.798 15.5999 168.078 15.5999C168.358 15.5999 168.631 15.5532 168.898 15.4599C169.165 15.3665 169.378 15.2865 169.538 15.2199L170.078 17.3399ZM171.415 17.8799V7.39988H174.095V17.8799H171.415ZM171.415 5.93988V3.27988H174.095V5.93988H171.415ZM192.753 17.8799H190.073V11.9999C190.073 11.1599 189.927 10.5465 189.633 10.1599C189.34 9.77322 188.94 9.57988 188.433 9.57988C187.913 9.57988 187.42 9.78655 186.953 10.1999C186.487 10.5999 186.153 11.1265 185.953 11.7799V17.8799H183.273V11.9999C183.273 11.1599 183.127 10.5465 182.833 10.1599C182.553 9.77322 182.16 9.57988 181.653 9.57988C181.133 9.57988 180.633 9.77988 180.153 10.1799C179.687 10.5799 179.353 11.1065 179.153 11.7599V17.8799H176.473V7.39988H178.893V9.33988C179.28 8.65988 179.807 8.13988 180.473 7.77988C181.153 7.40655 181.927 7.21988 182.793 7.21988C183.673 7.21988 184.347 7.43322 184.813 7.85988C185.293 8.28655 185.607 8.81322 185.753 9.43988C186.18 8.71988 186.72 8.17322 187.373 7.79988C188.027 7.41322 188.773 7.21988 189.613 7.21988C190.253 7.21988 190.78 7.33988 191.193 7.57988C191.607 7.81988 191.927 8.13322 192.153 8.51988C192.38 8.90655 192.533 9.34655 192.613 9.83988C192.707 10.3332 192.753 10.8332 192.753 11.3399V17.8799ZM199.928 18.0799C199.088 18.0799 198.328 17.9399 197.648 17.6599C196.968 17.3665 196.388 16.9732 195.908 16.4799C195.428 15.9865 195.054 15.4132 194.788 14.7599C194.534 14.1065 194.408 13.4199 194.408 12.6999C194.408 11.9532 194.534 11.2532 194.788 10.5999C195.041 9.93322 195.408 9.35322 195.888 8.85988C196.368 8.35322 196.948 7.95322 197.628 7.65988C198.321 7.36655 199.094 7.21988 199.948 7.21988C200.801 7.21988 201.561 7.36655 202.228 7.65988C202.908 7.95322 203.481 8.34655 203.948 8.83988C204.428 9.33322 204.788 9.90655 205.028 10.5599C205.281 11.2132 205.408 11.8932 205.408 12.5999C205.408 12.7732 205.401 12.9399 205.388 13.0999C205.388 13.2599 205.374 13.3932 205.348 13.4999H197.248C197.288 13.9132 197.388 14.2799 197.548 14.5999C197.708 14.9199 197.914 15.1932 198.168 15.4199C198.421 15.6465 198.708 15.8199 199.028 15.9399C199.348 16.0599 199.681 16.1199 200.028 16.1199C200.561 16.1199 201.061 15.9932 201.528 15.7399C202.008 15.4732 202.334 15.1265 202.508 14.6999L204.808 15.3399C204.421 16.1399 203.801 16.7999 202.948 17.3199C202.108 17.8265 201.101 18.0799 199.928 18.0799ZM202.648 11.7599C202.581 10.9732 202.288 10.3465 201.768 9.87988C201.261 9.39988 200.641 9.15988 199.908 9.15988C199.548 9.15988 199.208 9.22655 198.888 9.35988C198.581 9.47988 198.308 9.65322 198.068 9.87988C197.828 10.1065 197.628 10.3799 197.468 10.6999C197.321 11.0199 197.234 11.3732 197.208 11.7599H202.648Z" fill="#0A80DA"/>
<path d="M90.888 40.6239V41.7759H89V43.8239H87.72V41.7759H85.832V40.6239H87.72V38.5759H89V40.6239H90.888ZM96.3104 41.6639C96.3104 41.1199 96.4117 40.6132 96.6144 40.1439C96.8277 39.6639 97.1157 39.2479 97.4784 38.8959C97.8517 38.5332 98.2837 38.2505 98.7744 38.0479C99.265 37.8452 99.7984 37.7439 100.374 37.7439C100.982 37.7439 101.537 37.8559 102.038 38.0799C102.55 38.3039 102.988 38.6292 103.35 39.0559C103.713 39.4719 103.99 39.9839 104.182 40.5919C104.385 41.1892 104.486 41.8719 104.486 42.6399C104.486 43.7599 104.385 44.7412 104.182 45.5839C103.98 46.4159 103.692 47.1092 103.318 47.6639C102.945 48.2292 102.497 48.6505 101.974 48.9279C101.452 49.2052 100.87 49.3439 100.23 49.3439C99.4944 49.3439 98.8224 49.1679 98.2144 48.8159C97.617 48.4639 97.1477 47.9679 96.8064 47.3279L97.6704 46.4799C97.905 46.9812 98.2517 47.3759 98.7104 47.6639C99.169 47.9625 99.681 48.1119 100.246 48.1119C101.121 48.1119 101.82 47.7225 102.342 46.9439C102.865 46.1652 103.137 45.0719 103.158 43.6639C102.924 44.2185 102.545 44.6612 102.022 44.9919C101.5 45.3225 100.902 45.4879 100.23 45.4879C99.6864 45.4879 99.1744 45.3919 98.6944 45.1999C98.2144 44.9972 97.7984 44.7252 97.4464 44.3839C97.0944 44.0425 96.817 43.6372 96.6144 43.1679C96.4117 42.6985 96.3104 42.1972 96.3104 41.6639ZM100.358 38.9599C99.985 38.9599 99.633 39.0345 99.3024 39.1839C98.9824 39.3225 98.6997 39.5145 98.4544 39.7599C98.209 40.0052 98.0117 40.2932 97.8624 40.6239C97.7237 40.9439 97.6544 41.2905 97.6544 41.6639C97.6544 42.0372 97.7237 42.3892 97.8624 42.7199C98.0117 43.0399 98.209 43.3225 98.4544 43.5679C98.6997 43.8025 98.9824 43.9945 99.3024 44.1439C99.633 44.2825 99.985 44.3519 100.358 44.3519C100.732 44.3519 101.078 44.2825 101.398 44.1439C101.729 43.9945 102.017 43.8025 102.262 43.5679C102.508 43.3225 102.7 43.0399 102.838 42.7199C102.988 42.3892 103.062 42.0372 103.062 41.6639C103.062 41.3012 102.988 40.9545 102.838 40.6239C102.7 40.2932 102.508 40.0052 102.262 39.7599C102.017 39.5145 101.729 39.3225 101.398 39.1839C101.068 39.0345 100.721 38.9599 100.358 38.9599ZM111.956 45.5999V46.8799H106.212V45.5999H108.484V39.3599C108.388 39.4879 108.239 39.6265 108.036 39.7759C107.834 39.9145 107.604 40.0479 107.348 40.1759C107.103 40.2932 106.847 40.3945 106.58 40.4799C106.314 40.5652 106.079 40.6079 105.876 40.6079V39.2639C106.111 39.2639 106.372 39.1999 106.66 39.0719C106.948 38.9332 107.22 38.7785 107.476 38.6079C107.743 38.4265 107.967 38.2559 108.148 38.0959C108.34 37.9252 108.452 37.8079 108.484 37.7439H109.924V45.5999H111.956ZM117.096 46.8799C117.096 46.4532 117.128 46.0532 117.192 45.6799C117.267 45.3065 117.4 44.9492 117.592 44.6079C117.784 44.2665 118.045 43.9412 118.376 43.6319C118.717 43.3225 119.16 43.0132 119.704 42.7039C120.024 42.5332 120.349 42.3679 120.68 42.2079C121.011 42.0372 121.309 41.8612 121.576 41.6799C121.853 41.4879 122.077 41.2852 122.248 41.0719C122.429 40.8585 122.52 40.6079 122.52 40.3199C122.52 40.1385 122.477 39.9572 122.392 39.7759C122.307 39.5945 122.184 39.4345 122.024 39.2959C121.864 39.1572 121.661 39.0452 121.416 38.9599C121.181 38.8745 120.909 38.8319 120.6 38.8319C120.28 38.8319 119.987 38.8799 119.72 38.9759C119.464 39.0612 119.235 39.1732 119.032 39.3119C118.829 39.4399 118.653 39.5785 118.504 39.7279C118.355 39.8772 118.232 40.0105 118.136 40.1279L117.224 39.1039C117.309 39.0079 117.453 38.8799 117.656 38.7199C117.859 38.5492 118.115 38.3785 118.424 38.2079C118.733 38.0372 119.091 37.8932 119.496 37.7759C119.901 37.6479 120.355 37.5839 120.856 37.5839C121.347 37.5839 121.789 37.6532 122.184 37.7919C122.579 37.9199 122.909 38.1012 123.176 38.3359C123.453 38.5705 123.667 38.8479 123.816 39.1679C123.965 39.4772 124.04 39.8079 124.04 40.1599C124.04 40.5759 123.949 40.9385 123.768 41.2479C123.587 41.5572 123.363 41.8292 123.096 42.0639C122.84 42.2985 122.563 42.5012 122.264 42.6719C121.965 42.8319 121.699 42.9705 121.464 43.0879C121.229 43.2052 120.963 43.3492 120.664 43.5199C120.376 43.6799 120.099 43.8665 119.832 44.0799C119.565 44.2825 119.331 44.5119 119.128 44.7679C118.936 45.0239 118.813 45.3012 118.76 45.5999H124.216V46.8799H117.096ZM130.775 43.1039C131.458 43.2212 131.997 43.5359 132.391 44.0479C132.797 44.5599 132.999 45.1945 132.999 45.9519C132.999 46.4425 132.909 46.8905 132.727 47.2959C132.546 47.7012 132.285 48.0479 131.943 48.3359C131.613 48.6239 131.213 48.8425 130.743 48.9919C130.274 49.1519 129.751 49.2319 129.175 49.2319C128.365 49.2319 127.65 49.0772 127.031 48.7679C126.423 48.4692 125.949 48.0425 125.607 47.4879L126.551 46.5439C126.797 46.9812 127.127 47.3225 127.543 47.5679C127.959 47.8239 128.503 47.9519 129.175 47.9519C129.911 47.9519 130.487 47.7865 130.903 47.4559C131.33 47.1252 131.543 46.6239 131.543 45.9519C131.543 45.2799 131.314 44.7465 130.855 44.3519C130.407 43.9465 129.751 43.7439 128.887 43.7439H128.471V42.5599H128.919C129.687 42.5599 130.274 42.3785 130.679 42.0159C131.095 41.6425 131.303 41.1732 131.303 40.6079C131.303 40.0425 131.106 39.6212 130.711 39.3439C130.317 39.0665 129.821 38.9279 129.223 38.9279C128.637 38.9279 128.119 39.0559 127.671 39.3119C127.234 39.5572 126.893 39.9039 126.647 40.3519L125.783 39.4559C125.922 39.1892 126.109 38.9492 126.343 38.7359C126.589 38.5119 126.866 38.3199 127.175 38.1599C127.495 37.9999 127.837 37.8772 128.199 37.7919C128.573 37.7065 128.962 37.6639 129.367 37.6639C129.869 37.6639 130.327 37.7332 130.743 37.8719C131.17 38.0105 131.533 38.2025 131.831 38.4479C132.141 38.6932 132.375 38.9919 132.535 39.3439C132.706 39.6959 132.791 40.0852 132.791 40.5119C132.791 40.8319 132.743 41.1359 132.647 41.4239C132.562 41.7119 132.429 41.9732 132.247 42.2079C132.077 42.4425 131.863 42.6399 131.607 42.7999C131.362 42.9492 131.085 43.0505 130.775 43.1039ZM142.727 43.1199C142.727 43.6639 142.62 44.1759 142.407 44.6559C142.204 45.1252 141.916 45.5412 141.543 45.9039C141.18 46.2559 140.753 46.5332 140.263 46.7359C139.772 46.9385 139.239 47.0399 138.663 47.0399C138.055 47.0399 137.495 46.9279 136.983 46.7039C136.481 46.4799 136.049 46.1599 135.687 45.7439C135.324 45.3172 135.041 44.8052 134.839 44.2079C134.647 43.5999 134.551 42.9119 134.551 42.1439C134.551 41.0239 134.652 40.0479 134.855 39.2159C135.057 38.3732 135.345 37.6745 135.719 37.1199C136.092 36.5545 136.54 36.1332 137.063 35.8559C137.585 35.5785 138.167 35.4399 138.807 35.4399C139.543 35.4399 140.209 35.6159 140.807 35.9679C141.415 36.3199 141.889 36.8159 142.231 37.4559L141.367 38.3039C141.132 37.8025 140.785 37.4079 140.327 37.1199C139.868 36.8212 139.356 36.6719 138.791 36.6719C138.353 36.6719 137.959 36.7732 137.607 36.9759C137.255 37.1679 136.951 37.4559 136.695 37.8399C136.439 38.2239 136.241 38.6932 136.103 39.2479C135.964 39.7919 135.889 40.4159 135.879 41.1199C136.113 40.5652 136.492 40.1225 137.015 39.7919C137.537 39.4612 138.135 39.2959 138.807 39.2959C139.351 39.2959 139.863 39.3972 140.343 39.5999C140.823 39.7919 141.239 40.0639 141.591 40.4159C141.943 40.7572 142.22 41.1625 142.423 41.6319C142.625 42.0905 142.727 42.5865 142.727 43.1199ZM138.679 45.8239C139.041 45.8239 139.388 45.7545 139.719 45.6159C140.049 45.4665 140.337 45.2692 140.583 45.0239C140.828 44.7785 141.02 44.4959 141.159 44.1759C141.308 43.8452 141.383 43.4932 141.383 43.1199C141.383 42.7572 141.308 42.4105 141.159 42.0799C141.02 41.7492 140.828 41.4665 140.583 41.2319C140.337 40.9865 140.049 40.7945 139.719 40.6559C139.388 40.5065 139.041 40.4319 138.679 40.4319C138.305 40.4319 137.953 40.5065 137.623 40.6559C137.303 40.7945 137.02 40.9865 136.775 41.2319C136.529 41.4665 136.332 41.7492 136.183 42.0799C136.044 42.4105 135.975 42.7572 135.975 43.1199C135.975 43.4932 136.044 43.8452 136.183 44.1759C136.332 44.4959 136.529 44.7785 136.775 45.0239C137.02 45.2692 137.303 45.4665 137.623 45.6159C137.953 45.7545 138.305 45.8239 138.679 45.8239ZM149.95 38.8479H144.11V37.5519H152.174L146.462 48.9119H144.862L149.95 38.8479ZM161.112 43.6639C161.112 44.1759 161 44.6399 160.776 45.0559C160.563 45.4612 160.269 45.8079 159.896 46.0959C159.533 46.3839 159.107 46.6079 158.616 46.7679C158.136 46.9279 157.624 47.0079 157.08 47.0079C156.515 47.0079 155.987 46.9225 155.496 46.7519C155.016 46.5705 154.6 46.3305 154.248 46.0319C153.896 45.7225 153.619 45.3599 153.416 44.9439C153.213 44.5279 153.112 44.0799 153.112 43.5999C153.112 43.2479 153.176 42.9225 153.304 42.6239C153.432 42.3252 153.592 42.0585 153.784 41.8239C153.987 41.5892 154.216 41.3865 154.472 41.2159C154.728 41.0345 154.984 40.8959 155.24 40.7999C155.005 40.7039 154.781 40.5812 154.568 40.4319C154.355 40.2719 154.168 40.0959 154.008 39.9039C153.848 39.7012 153.72 39.4825 153.624 39.2479C153.539 39.0132 153.496 38.7625 153.496 38.4959C153.496 38.0159 153.603 37.5945 153.816 37.2319C154.04 36.8585 154.323 36.5439 154.664 36.2879C155.016 36.0319 155.405 35.8399 155.832 35.7119C156.259 35.5839 156.685 35.5199 157.112 35.5199C157.539 35.5199 157.965 35.5839 158.392 35.7119C158.829 35.8399 159.219 36.0319 159.56 36.2879C159.912 36.5332 160.195 36.8425 160.408 37.2159C160.632 37.5785 160.744 37.9999 160.744 38.4799C160.744 39.0132 160.568 39.4825 160.216 39.8879C159.864 40.2932 159.448 40.5972 158.968 40.7999C159.256 40.9172 159.528 41.0665 159.784 41.2479C160.051 41.4292 160.28 41.6425 160.472 41.8879C160.664 42.1225 160.819 42.3892 160.936 42.6879C161.053 42.9865 161.112 43.3119 161.112 43.6639ZM159.688 43.5679C159.688 43.2265 159.608 42.9225 159.448 42.6559C159.299 42.3785 159.101 42.1492 158.856 41.9679C158.611 41.7759 158.333 41.6319 158.024 41.5359C157.715 41.4399 157.405 41.3919 157.096 41.3919C156.776 41.3919 156.461 41.4452 156.152 41.5519C155.853 41.6479 155.581 41.7919 155.336 41.9839C155.101 42.1759 154.909 42.4105 154.76 42.6879C154.621 42.9545 154.552 43.2532 154.552 43.5839C154.552 43.9252 154.627 44.2292 154.776 44.4959C154.936 44.7625 155.139 44.9865 155.384 45.1679C155.629 45.3492 155.901 45.4932 156.2 45.5999C156.509 45.6959 156.819 45.7439 157.128 45.7439C157.448 45.7439 157.757 45.6905 158.056 45.5839C158.365 45.4772 158.637 45.3279 158.872 45.1359C159.117 44.9439 159.315 44.7145 159.464 44.4479C159.613 44.1812 159.688 43.8879 159.688 43.5679ZM154.92 38.5439C154.92 38.8319 154.984 39.0879 155.112 39.3119C155.251 39.5252 155.427 39.7065 155.64 39.8559C155.853 40.0052 156.088 40.1172 156.344 40.1919C156.6 40.2665 156.856 40.3039 157.112 40.3039C157.368 40.3039 157.624 40.2665 157.88 40.1919C158.136 40.1065 158.371 39.9892 158.584 39.8399C158.797 39.6905 158.968 39.5039 159.096 39.2799C159.235 39.0559 159.304 38.7999 159.304 38.5119C159.304 38.2452 159.24 38.0052 159.112 37.7919C158.995 37.5785 158.835 37.3972 158.632 37.2479C158.429 37.0985 158.195 36.9865 157.928 36.9119C157.661 36.8265 157.384 36.7839 157.096 36.7839C156.808 36.7839 156.531 36.8265 156.264 36.9119C156.008 36.9865 155.779 37.1039 155.576 37.2639C155.384 37.4132 155.224 37.5999 155.096 37.8239C154.979 38.0372 154.92 38.2772 154.92 38.5439ZM166.69 46.8799C166.69 46.4532 166.722 46.0532 166.786 45.6799C166.861 45.3065 166.994 44.9492 167.186 44.6079C167.378 44.2665 167.639 43.9412 167.97 43.6319C168.311 43.3225 168.754 43.0132 169.298 42.7039C169.618 42.5332 169.943 42.3679 170.274 42.2079C170.605 42.0372 170.903 41.8612 171.17 41.6799C171.447 41.4879 171.671 41.2852 171.842 41.0719C172.023 40.8585 172.114 40.6079 172.114 40.3199C172.114 40.1385 172.071 39.9572 171.986 39.7759C171.901 39.5945 171.778 39.4345 171.618 39.2959C171.458 39.1572 171.255 39.0452 171.01 38.9599C170.775 38.8745 170.503 38.8319 170.194 38.8319C169.874 38.8319 169.581 38.8799 169.314 38.9759C169.058 39.0612 168.829 39.1732 168.626 39.3119C168.423 39.4399 168.247 39.5785 168.098 39.7279C167.949 39.8772 167.826 40.0105 167.73 40.1279L166.818 39.1039C166.903 39.0079 167.047 38.8799 167.25 38.7199C167.453 38.5492 167.709 38.3785 168.018 38.2079C168.327 38.0372 168.685 37.8932 169.09 37.7759C169.495 37.6479 169.949 37.5839 170.45 37.5839C170.941 37.5839 171.383 37.6532 171.778 37.7919C172.173 37.9199 172.503 38.1012 172.77 38.3359C173.047 38.5705 173.261 38.8479 173.41 39.1679C173.559 39.4772 173.634 39.8079 173.634 40.1599C173.634 40.5759 173.543 40.9385 173.362 41.2479C173.181 41.5572 172.957 41.8292 172.69 42.0639C172.434 42.2985 172.157 42.5012 171.858 42.6719C171.559 42.8319 171.293 42.9705 171.058 43.0879C170.823 43.2052 170.557 43.3492 170.258 43.5199C169.97 43.6799 169.693 43.8665 169.426 44.0799C169.159 44.2825 168.925 44.5119 168.722 44.7679C168.53 45.0239 168.407 45.3012 168.354 45.5999H173.81V46.8799H166.69ZM181.153 38.8479H175.313V37.5519H183.377L177.665 48.9119H176.065L181.153 38.8479ZM192.315 43.6639C192.315 44.1759 192.203 44.6399 191.979 45.0559C191.766 45.4612 191.473 45.8079 191.099 46.0959C190.737 46.3839 190.31 46.6079 189.819 46.7679C189.339 46.9279 188.827 47.0079 188.283 47.0079C187.718 47.0079 187.19 46.9225 186.699 46.7519C186.219 46.5705 185.803 46.3305 185.451 46.0319C185.099 45.7225 184.822 45.3599 184.619 44.9439C184.417 44.5279 184.315 44.0799 184.315 43.5999C184.315 43.2479 184.379 42.9225 184.507 42.6239C184.635 42.3252 184.795 42.0585 184.987 41.8239C185.19 41.5892 185.419 41.3865 185.675 41.2159C185.931 41.0345 186.187 40.8959 186.443 40.7999C186.209 40.7039 185.985 40.5812 185.771 40.4319C185.558 40.2719 185.371 40.0959 185.211 39.9039C185.051 39.7012 184.923 39.4825 184.827 39.2479C184.742 39.0132 184.699 38.7625 184.699 38.4959C184.699 38.0159 184.806 37.5945 185.019 37.2319C185.243 36.8585 185.526 36.5439 185.867 36.2879C186.219 36.0319 186.609 35.8399 187.035 35.7119C187.462 35.5839 187.889 35.5199 188.315 35.5199C188.742 35.5199 189.169 35.5839 189.595 35.7119C190.033 35.8399 190.422 36.0319 190.763 36.2879C191.115 36.5332 191.398 36.8425 191.611 37.2159C191.835 37.5785 191.947 37.9999 191.947 38.4799C191.947 39.0132 191.771 39.4825 191.419 39.8879C191.067 40.2932 190.651 40.5972 190.171 40.7999C190.459 40.9172 190.731 41.0665 190.987 41.2479C191.254 41.4292 191.483 41.6425 191.675 41.8879C191.867 42.1225 192.022 42.3892 192.139 42.6879C192.257 42.9865 192.315 43.3119 192.315 43.6639ZM190.891 43.5679C190.891 43.2265 190.811 42.9225 190.651 42.6559C190.502 42.3785 190.305 42.1492 190.059 41.9679C189.814 41.7759 189.537 41.6319 189.227 41.5359C188.918 41.4399 188.609 41.3919 188.299 41.3919C187.979 41.3919 187.665 41.4452 187.355 41.5519C187.057 41.6479 186.785 41.7919 186.539 41.9839C186.305 42.1759 186.113 42.4105 185.963 42.6879C185.825 42.9545 185.755 43.2532 185.755 43.5839C185.755 43.9252 185.83 44.2292 185.979 44.4959C186.139 44.7625 186.342 44.9865 186.587 45.1679C186.833 45.3492 187.105 45.4932 187.403 45.5999C187.713 45.6959 188.022 45.7439 188.331 45.7439C188.651 45.7439 188.961 45.6905 189.259 45.5839C189.569 45.4772 189.841 45.3279 190.075 45.1359C190.321 44.9439 190.518 44.7145 190.667 44.4479C190.817 44.1812 190.891 43.8879 190.891 43.5679ZM186.123 38.5439C186.123 38.8319 186.187 39.0879 186.315 39.3119C186.454 39.5252 186.63 39.7065 186.843 39.8559C187.057 40.0052 187.291 40.1172 187.547 40.1919C187.803 40.2665 188.059 40.3039 188.315 40.3039C188.571 40.3039 188.827 40.2665 189.083 40.1919C189.339 40.1065 189.574 39.9892 189.787 39.8399C190.001 39.6905 190.171 39.5039 190.299 39.2799C190.438 39.0559 190.507 38.7999 190.507 38.5119C190.507 38.2452 190.443 38.0052 190.315 37.7919C190.198 37.5785 190.038 37.3972 189.835 37.2479C189.633 37.0985 189.398 36.9865 189.131 36.9119C188.865 36.8265 188.587 36.7839 188.299 36.7839C188.011 36.7839 187.734 36.8265 187.467 36.9119C187.211 36.9865 186.982 37.1039 186.779 37.2639C186.587 37.4132 186.427 37.5999 186.299 37.8239C186.182 38.0372 186.123 38.2772 186.123 38.5439ZM202.117 43.1199C202.117 43.6639 202.011 44.1759 201.797 44.6559C201.595 45.1252 201.307 45.5412 200.933 45.9039C200.571 46.2559 200.144 46.5332 199.653 46.7359C199.163 46.9385 198.629 47.0399 198.053 47.0399C197.445 47.0399 196.885 46.9279 196.373 46.7039C195.872 46.4799 195.44 46.1599 195.077 45.7439C194.715 45.3172 194.432 44.8052 194.229 44.2079C194.037 43.5999 193.941 42.9119 193.941 42.1439C193.941 41.0239 194.043 40.0479 194.245 39.2159C194.448 38.3732 194.736 37.6745 195.109 37.1199C195.483 36.5545 195.931 36.1332 196.453 35.8559C196.976 35.5785 197.557 35.4399 198.197 35.4399C198.933 35.4399 199.6 35.6159 200.197 35.9679C200.805 36.3199 201.28 36.8159 201.621 37.4559L200.757 38.3039C200.523 37.8025 200.176 37.4079 199.717 37.1199C199.259 36.8212 198.747 36.6719 198.181 36.6719C197.744 36.6719 197.349 36.7732 196.997 36.9759C196.645 37.1679 196.341 37.4559 196.085 37.8399C195.829 38.2239 195.632 38.6932 195.493 39.2479C195.355 39.7919 195.28 40.4159 195.269 41.1199C195.504 40.5652 195.883 40.1225 196.405 39.7919C196.928 39.4612 197.525 39.2959 198.197 39.2959C198.741 39.2959 199.253 39.3972 199.733 39.5999C200.213 39.7919 200.629 40.0639 200.981 40.4159C201.333 40.7572 201.611 41.1625 201.813 41.6319C202.016 42.0905 202.117 42.5865 202.117 43.1199ZM198.069 45.8239C198.432 45.8239 198.779 45.7545 199.109 45.6159C199.44 45.4665 199.728 45.2692 199.973 45.0239C200.219 44.7785 200.411 44.4959 200.549 44.1759C200.699 43.8452 200.773 43.4932 200.773 43.1199C200.773 42.7572 200.699 42.4105 200.549 42.0799C200.411 41.7492 200.219 41.4665 199.973 41.2319C199.728 40.9865 199.44 40.7945 199.109 40.6559C198.779 40.5065 198.432 40.4319 198.069 40.4319C197.696 40.4319 197.344 40.5065 197.013 40.6559C196.693 40.7945 196.411 40.9865 196.165 41.2319C195.92 41.4665 195.723 41.7492 195.573 42.0799C195.435 42.4105 195.365 42.7572 195.365 43.1199C195.365 43.4932 195.435 43.8452 195.573 44.1759C195.723 44.4959 195.92 44.7785 196.165 45.0239C196.411 45.2692 196.693 45.4665 197.013 45.6159C197.344 45.7545 197.696 45.8239 198.069 45.8239ZM209.341 38.8479H203.501V37.5519H211.565L205.853 48.9119H204.253L209.341 38.8479ZM90.888 60.6239V61.7759H89V63.8239H87.72V61.7759H85.832V60.6239H87.72V58.5759H89V60.6239H90.888ZM96.3104 61.6639C96.3104 61.1199 96.4117 60.6132 96.6144 60.1439C96.8277 59.6639 97.1157 59.2479 97.4784 58.8959C97.8517 58.5332 98.2837 58.2505 98.7744 58.0479C99.265 57.8452 99.7984 57.7439 100.374 57.7439C100.982 57.7439 101.537 57.8559 102.038 58.0799C102.55 58.3039 102.988 58.6292 103.35 59.0559C103.713 59.4719 103.99 59.9839 104.182 60.5919C104.385 61.1892 104.486 61.8719 104.486 62.6399C104.486 63.7599 104.385 64.7412 104.182 65.5839C103.98 66.4159 103.692 67.1092 103.318 67.6639C102.945 68.2292 102.497 68.6505 101.974 68.9279C101.452 69.2052 100.87 69.3439 100.23 69.3439C99.4944 69.3439 98.8224 69.1679 98.2144 68.8159C97.617 68.4639 97.1477 67.9679 96.8064 67.3279L97.6704 66.4799C97.905 66.9812 98.2517 67.3759 98.7104 67.6639C99.169 67.9625 99.681 68.1119 100.246 68.1119C101.121 68.1119 101.82 67.7225 102.342 66.9439C102.865 66.1652 103.137 65.0719 103.158 63.6639C102.924 64.2185 102.545 64.6612 102.022 64.9919C101.5 65.3225 100.902 65.4879 100.23 65.4879C99.6864 65.4879 99.1744 65.3919 98.6944 65.1999C98.2144 64.9972 97.7984 64.7252 97.4464 64.3839C97.0944 64.0425 96.817 63.6372 96.6144 63.1679C96.4117 62.6985 96.3104 62.1972 96.3104 61.6639ZM100.358 58.9599C99.985 58.9599 99.633 59.0345 99.3024 59.1839C98.9824 59.3225 98.6997 59.5145 98.4544 59.7599C98.209 60.0052 98.0117 60.2932 97.8624 60.6239C97.7237 60.9439 97.6544 61.2905 97.6544 61.6639C97.6544 62.0372 97.7237 62.3892 97.8624 62.7199C98.0117 63.0399 98.209 63.3225 98.4544 63.5679C98.6997 63.8025 98.9824 63.9945 99.3024 64.1439C99.633 64.2825 99.985 64.3519 100.358 64.3519C100.732 64.3519 101.078 64.2825 101.398 64.1439C101.729 63.9945 102.017 63.8025 102.262 63.5679C102.508 63.3225 102.7 63.0399 102.838 62.7199C102.988 62.3892 103.062 62.0372 103.062 61.6639C103.062 61.3012 102.988 60.9545 102.838 60.6239C102.7 60.2932 102.508 60.0052 102.262 59.7599C102.017 59.5145 101.729 59.3225 101.398 59.1839C101.068 59.0345 100.721 58.9599 100.358 58.9599ZM111.956 65.5999V66.8799H106.212V65.5999H108.484V59.3599C108.388 59.4879 108.239 59.6265 108.036 59.7759C107.834 59.9145 107.604 60.0479 107.348 60.1759C107.103 60.2932 106.847 60.3945 106.58 60.4799C106.314 60.5652 106.079 60.6079 105.876 60.6079V59.2639C106.111 59.2639 106.372 59.1999 106.66 59.0719C106.948 58.9332 107.22 58.7785 107.476 58.6079C107.743 58.4265 107.967 58.2559 108.148 58.0959C108.34 57.9252 108.452 57.8079 108.484 57.7439H109.924V65.5999H111.956ZM125.336 63.1199C125.336 63.6639 125.229 64.1759 125.016 64.6559C124.813 65.1252 124.525 65.5412 124.152 65.9039C123.789 66.2559 123.363 66.5332 122.872 66.7359C122.381 66.9385 121.848 67.0399 121.272 67.0399C120.664 67.0399 120.104 66.9279 119.592 66.7039C119.091 66.4799 118.659 66.1599 118.296 65.7439C117.933 65.3172 117.651 64.8052 117.448 64.2079C117.256 63.5999 117.16 62.9119 117.16 62.1439C117.16 61.0239 117.261 60.0479 117.464 59.2159C117.667 58.3732 117.955 57.6745 118.328 57.1199C118.701 56.5545 119.149 56.1332 119.672 55.8559C120.195 55.5785 120.776 55.4399 121.416 55.4399C122.152 55.4399 122.819 55.6159 123.416 55.9679C124.024 56.3199 124.499 56.8159 124.84 57.4559L123.976 58.3039C123.741 57.8025 123.395 57.4079 122.936 57.1199C122.477 56.8212 121.965 56.6719 121.4 56.6719C120.963 56.6719 120.568 56.7732 120.216 56.9759C119.864 57.1679 119.56 57.4559 119.304 57.8399C119.048 58.2239 118.851 58.6932 118.712 59.2479C118.573 59.7919 118.499 60.4159 118.488 61.1199C118.723 60.5652 119.101 60.1225 119.624 59.7919C120.147 59.4612 120.744 59.2959 121.416 59.2959C121.96 59.2959 122.472 59.3972 122.952 59.5999C123.432 59.7919 123.848 60.0639 124.2 60.4159C124.552 60.7572 124.829 61.1625 125.032 61.6319C125.235 62.0905 125.336 62.5865 125.336 63.1199ZM121.288 65.8239C121.651 65.8239 121.997 65.7545 122.328 65.6159C122.659 65.4665 122.947 65.2692 123.192 65.0239C123.437 64.7785 123.629 64.4959 123.768 64.1759C123.917 63.8452 123.992 63.4932 123.992 63.1199C123.992 62.7572 123.917 62.4105 123.768 62.0799C123.629 61.7492 123.437 61.4665 123.192 61.2319C122.947 60.9865 122.659 60.7945 122.328 60.6559C121.997 60.5065 121.651 60.4319 121.288 60.4319C120.915 60.4319 120.563 60.5065 120.232 60.6559C119.912 60.7945 119.629 60.9865 119.384 61.2319C119.139 61.4665 118.941 61.7492 118.792 62.0799C118.653 62.4105 118.584 62.7572 118.584 63.1199C118.584 63.4932 118.653 63.8452 118.792 64.1759C118.941 64.4959 119.139 64.7785 119.384 65.0239C119.629 65.2692 119.912 65.4665 120.232 65.6159C120.563 65.7545 120.915 65.8239 121.288 65.8239ZM132.559 58.8479H126.719V57.5519H134.783L129.071 68.9119H127.471L132.559 58.8479ZM143.946 63.1199C143.946 63.6639 143.839 64.1759 143.626 64.6559C143.423 65.1252 143.135 65.5412 142.762 65.9039C142.399 66.2559 141.972 66.5332 141.482 66.7359C140.991 66.9385 140.458 67.0399 139.882 67.0399C139.274 67.0399 138.714 66.9279 138.202 66.7039C137.7 66.4799 137.268 66.1599 136.906 65.7439C136.543 65.3172 136.26 64.8052 136.058 64.2079C135.866 63.5999 135.77 62.9119 135.77 62.1439C135.77 61.0239 135.871 60.0479 136.074 59.2159C136.276 58.3732 136.564 57.6745 136.938 57.1199C137.311 56.5545 137.759 56.1332 138.282 55.8559C138.804 55.5785 139.386 55.4399 140.026 55.4399C140.762 55.4399 141.428 55.6159 142.026 55.9679C142.634 56.3199 143.108 56.8159 143.45 57.4559L142.586 58.3039C142.351 57.8025 142.004 57.4079 141.546 57.1199C141.087 56.8212 140.575 56.6719 140.01 56.6719C139.572 56.6719 139.178 56.7732 138.826 56.9759C138.474 57.1679 138.17 57.4559 137.914 57.8399C137.658 58.2239 137.46 58.6932 137.322 59.2479C137.183 59.7919 137.108 60.4159 137.098 61.1199C137.332 60.5652 137.711 60.1225 138.234 59.7919C138.756 59.4612 139.354 59.2959 140.026 59.2959C140.57 59.2959 141.082 59.3972 141.562 59.5999C142.042 59.7919 142.458 60.0639 142.81 60.4159C143.162 60.7572 143.439 61.1625 143.642 61.6319C143.844 62.0905 143.946 62.5865 143.946 63.1199ZM139.898 65.8239C140.26 65.8239 140.607 65.7545 140.938 65.6159C141.268 65.4665 141.556 65.2692 141.802 65.0239C142.047 64.7785 142.239 64.4959 142.378 64.1759C142.527 63.8452 142.602 63.4932 142.602 63.1199C142.602 62.7572 142.527 62.4105 142.378 62.0799C142.239 61.7492 142.047 61.4665 141.802 61.2319C141.556 60.9865 141.268 60.7945 140.938 60.6559C140.607 60.5065 140.26 60.4319 139.898 60.4319C139.524 60.4319 139.172 60.5065 138.842 60.6559C138.522 60.7945 138.239 60.9865 137.994 61.2319C137.748 61.4665 137.551 61.7492 137.402 62.0799C137.263 62.4105 137.194 62.7572 137.194 63.1199C137.194 63.4932 137.263 63.8452 137.402 64.1759C137.551 64.4959 137.748 64.7785 137.994 65.0239C138.239 65.2692 138.522 65.4665 138.842 65.6159C139.172 65.7545 139.524 65.8239 139.898 65.8239ZM151.169 58.8479H145.329V57.5519H153.393L147.681 68.9119H146.081L151.169 58.8479ZM162.331 63.6639C162.331 64.1759 162.219 64.6399 161.995 65.0559C161.782 65.4612 161.488 65.8079 161.115 66.0959C160.752 66.3839 160.326 66.6079 159.835 66.7679C159.355 66.9279 158.843 67.0079 158.299 67.0079C157.734 67.0079 157.206 66.9225 156.715 66.7519C156.235 66.5705 155.819 66.3305 155.467 66.0319C155.115 65.7225 154.838 65.3599 154.635 64.9439C154.432 64.5279 154.331 64.0799 154.331 63.5999C154.331 63.2479 154.395 62.9225 154.523 62.6239C154.651 62.3252 154.811 62.0585 155.003 61.8239C155.206 61.5892 155.435 61.3865 155.691 61.2159C155.947 61.0345 156.203 60.8959 156.459 60.7999C156.224 60.7039 156 60.5812 155.787 60.4319C155.574 60.2719 155.387 60.0959 155.227 59.9039C155.067 59.7012 154.939 59.4825 154.843 59.2479C154.758 59.0132 154.715 58.7625 154.715 58.4959C154.715 58.0159 154.822 57.5945 155.035 57.2319C155.259 56.8585 155.542 56.5439 155.883 56.2879C156.235 56.0319 156.624 55.8399 157.051 55.7119C157.478 55.5839 157.904 55.5199 158.331 55.5199C158.758 55.5199 159.184 55.5839 159.611 55.7119C160.048 55.8399 160.438 56.0319 160.779 56.2879C161.131 56.5332 161.414 56.8425 161.627 57.2159C161.851 57.5785 161.963 57.9999 161.963 58.4799C161.963 59.0132 161.787 59.4825 161.435 59.8879C161.083 60.2932 160.667 60.5972 160.187 60.7999C160.475 60.9172 160.747 61.0665 161.003 61.2479C161.27 61.4292 161.499 61.6425 161.691 61.8879C161.883 62.1225 162.038 62.3892 162.155 62.6879C162.272 62.9865 162.331 63.3119 162.331 63.6639ZM160.907 63.5679C160.907 63.2265 160.827 62.9225 160.667 62.6559C160.518 62.3785 160.32 62.1492 160.075 61.9679C159.83 61.7759 159.552 61.6319 159.243 61.5359C158.934 61.4399 158.624 61.3919 158.315 61.3919C157.995 61.3919 157.68 61.4452 157.371 61.5519C157.072 61.6479 156.8 61.7919 156.555 61.9839C156.32 62.1759 156.128 62.4105 155.979 62.6879C155.84 62.9545 155.771 63.2532 155.771 63.5839C155.771 63.9252 155.846 64.2292 155.995 64.4959C156.155 64.7625 156.358 64.9865 156.603 65.1679C156.848 65.3492 157.12 65.4932 157.419 65.5999C157.728 65.6959 158.038 65.7439 158.347 65.7439C158.667 65.7439 158.976 65.6905 159.275 65.5839C159.584 65.4772 159.856 65.3279 160.091 65.1359C160.336 64.9439 160.534 64.7145 160.683 64.4479C160.832 64.1812 160.907 63.8879 160.907 63.5679ZM156.139 58.5439C156.139 58.8319 156.203 59.0879 156.331 59.3119C156.47 59.5252 156.646 59.7065 156.859 59.8559C157.072 60.0052 157.307 60.1172 157.563 60.1919C157.819 60.2665 158.075 60.3039 158.331 60.3039C158.587 60.3039 158.843 60.2665 159.099 60.1919C159.355 60.1065 159.59 59.9892 159.803 59.8399C160.016 59.6905 160.187 59.5039 160.315 59.2799C160.454 59.0559 160.523 58.7999 160.523 58.5119C160.523 58.2452 160.459 58.0052 160.331 57.7919C160.214 57.5785 160.054 57.3972 159.851 57.2479C159.648 57.0985 159.414 56.9865 159.147 56.9119C158.88 56.8265 158.603 56.7839 158.315 56.7839C158.027 56.7839 157.75 56.8265 157.483 56.9119C157.227 56.9865 156.998 57.1039 156.795 57.2639C156.603 57.4132 156.443 57.5999 156.315 57.8239C156.198 58.0372 156.139 58.2772 156.139 58.5439ZM167.717 61.6639C167.717 61.1199 167.818 60.6132 168.021 60.1439C168.234 59.6639 168.522 59.2479 168.885 58.8959C169.258 58.5332 169.69 58.2505 170.181 58.0479C170.671 57.8452 171.205 57.7439 171.781 57.7439C172.389 57.7439 172.943 57.8559 173.445 58.0799C173.957 58.3039 174.394 58.6292 174.757 59.0559C175.119 59.4719 175.397 59.9839 175.589 60.5919C175.791 61.1892 175.893 61.8719 175.893 62.6399C175.893 63.7599 175.791 64.7412 175.589 65.5839C175.386 66.4159 175.098 67.1092 174.725 67.6639C174.351 68.2292 173.903 68.6505 173.381 68.9279C172.858 69.2052 172.277 69.3439 171.637 69.3439C170.901 69.3439 170.229 69.1679 169.621 68.8159C169.023 68.4639 168.554 67.9679 168.213 67.3279L169.077 66.4799C169.311 66.9812 169.658 67.3759 170.117 67.6639C170.575 67.9625 171.087 68.1119 171.653 68.1119C172.527 68.1119 173.226 67.7225 173.749 66.9439C174.271 66.1652 174.543 65.0719 174.565 63.6639C174.33 64.2185 173.951 64.6612 173.429 64.9919C172.906 65.3225 172.309 65.4879 171.637 65.4879C171.093 65.4879 170.581 65.3919 170.101 65.1999C169.621 64.9972 169.205 64.7252 168.853 64.3839C168.501 64.0425 168.223 63.6372 168.021 63.1679C167.818 62.6985 167.717 62.1972 167.717 61.6639ZM171.765 58.9599C171.391 58.9599 171.039 59.0345 170.709 59.1839C170.389 59.3225 170.106 59.5145 169.861 59.7599C169.615 60.0052 169.418 60.2932 169.269 60.6239C169.13 60.9439 169.061 61.2905 169.061 61.6639C169.061 62.0372 169.13 62.3892 169.269 62.7199C169.418 63.0399 169.615 63.3225 169.861 63.5679C170.106 63.8025 170.389 63.9945 170.709 64.1439C171.039 64.2825 171.391 64.3519 171.765 64.3519C172.138 64.3519 172.485 64.2825 172.805 64.1439C173.135 63.9945 173.423 63.8025 173.669 63.5679C173.914 63.3225 174.106 63.0399 174.245 62.7199C174.394 62.3892 174.469 62.0372 174.469 61.6639C174.469 61.3012 174.394 60.9545 174.245 60.6239C174.106 60.2932 173.914 60.0052 173.669 59.7599C173.423 59.5145 173.135 59.3225 172.805 59.1839C172.474 59.0345 172.127 58.9599 171.765 58.9599ZM177.331 66.8799C177.331 66.4532 177.363 66.0532 177.427 65.6799C177.501 65.3065 177.635 64.9492 177.827 64.6079C178.019 64.2665 178.28 63.9412 178.611 63.6319C178.952 63.3225 179.395 63.0132 179.939 62.7039C180.259 62.5332 180.584 62.3679 180.915 62.2079C181.245 62.0372 181.544 61.8612 181.811 61.6799C182.088 61.4879 182.312 61.2852 182.483 61.0719C182.664 60.8585 182.755 60.6079 182.755 60.3199C182.755 60.1385 182.712 59.9572 182.627 59.7759C182.541 59.5945 182.419 59.4345 182.259 59.2959C182.099 59.1572 181.896 59.0452 181.651 58.9599C181.416 58.8745 181.144 58.8319 180.835 58.8319C180.515 58.8319 180.221 58.8799 179.955 58.9759C179.699 59.0612 179.469 59.1732 179.267 59.3119C179.064 59.4399 178.888 59.5785 178.739 59.7279C178.589 59.8772 178.467 60.0105 178.371 60.1279L177.459 59.1039C177.544 59.0079 177.688 58.8799 177.891 58.7199C178.093 58.5492 178.349 58.3785 178.659 58.2079C178.968 58.0372 179.325 57.8932 179.731 57.7759C180.136 57.6479 180.589 57.5839 181.091 57.5839C181.581 57.5839 182.024 57.6532 182.419 57.7919C182.813 57.9199 183.144 58.1012 183.411 58.3359C183.688 58.5705 183.901 58.8479 184.051 59.1679C184.2 59.4772 184.275 59.8079 184.275 60.1599C184.275 60.5759 184.184 60.9385 184.003 61.2479C183.821 61.5572 183.597 61.8292 183.331 62.0639C183.075 62.2985 182.797 62.5012 182.499 62.6719C182.2 62.8319 181.933 62.9705 181.699 63.0879C181.464 63.2052 181.197 63.3492 180.899 63.5199C180.611 63.6799 180.333 63.8665 180.067 64.0799C179.8 64.2825 179.565 64.5119 179.363 64.7679C179.171 65.0239 179.048 65.3012 178.995 65.5999H184.451V66.8799H177.331ZM194.05 63.6639C194.05 64.1759 193.938 64.6399 193.714 65.0559C193.5 65.4612 193.207 65.8079 192.834 66.0959C192.471 66.3839 192.044 66.6079 191.554 66.7679C191.074 66.9279 190.562 67.0079 190.018 67.0079C189.452 67.0079 188.924 66.9225 188.434 66.7519C187.954 66.5705 187.538 66.3305 187.186 66.0319C186.834 65.7225 186.556 65.3599 186.354 64.9439C186.151 64.5279 186.05 64.0799 186.05 63.5999C186.05 63.2479 186.114 62.9225 186.242 62.6239C186.37 62.3252 186.53 62.0585 186.722 61.8239C186.924 61.5892 187.154 61.3865 187.41 61.2159C187.666 61.0345 187.922 60.8959 188.178 60.7999C187.943 60.7039 187.719 60.5812 187.506 60.4319C187.292 60.2719 187.106 60.0959 186.946 59.9039C186.786 59.7012 186.658 59.4825 186.562 59.2479C186.476 59.0132 186.434 58.7625 186.434 58.4959C186.434 58.0159 186.54 57.5945 186.754 57.2319C186.978 56.8585 187.26 56.5439 187.602 56.2879C187.954 56.0319 188.343 55.8399 188.77 55.7119C189.196 55.5839 189.623 55.5199 190.05 55.5199C190.476 55.5199 190.903 55.5839 191.33 55.7119C191.767 55.8399 192.156 56.0319 192.498 56.2879C192.85 56.5332 193.132 56.8425 193.346 57.2159C193.57 57.5785 193.682 57.9999 193.682 58.4799C193.682 59.0132 193.506 59.4825 193.154 59.8879C192.802 60.2932 192.386 60.5972 191.906 60.7999C192.194 60.9172 192.466 61.0665 192.722 61.2479C192.988 61.4292 193.218 61.6425 193.41 61.8879C193.602 62.1225 193.756 62.3892 193.874 62.6879C193.991 62.9865 194.05 63.3119 194.05 63.6639ZM192.626 63.5679C192.626 63.2265 192.546 62.9225 192.386 62.6559C192.236 62.3785 192.039 62.1492 191.794 61.9679C191.548 61.7759 191.271 61.6319 190.962 61.5359C190.652 61.4399 190.343 61.3919 190.034 61.3919C189.714 61.3919 189.399 61.4452 189.09 61.5519C188.791 61.6479 188.519 61.7919 188.274 61.9839C188.039 62.1759 187.847 62.4105 187.698 62.6879C187.559 62.9545 187.49 63.2532 187.49 63.5839C187.49 63.9252 187.564 64.2292 187.714 64.4959C187.874 64.7625 188.076 64.9865 188.322 65.1679C188.567 65.3492 188.839 65.4932 189.138 65.5999C189.447 65.6959 189.756 65.7439 190.066 65.7439C190.386 65.7439 190.695 65.6905 190.994 65.5839C191.303 65.4772 191.575 65.3279 191.81 65.1359C192.055 64.9439 192.252 64.7145 192.402 64.4479C192.551 64.1812 192.626 63.8879 192.626 63.5679ZM187.858 58.5439C187.858 58.8319 187.922 59.0879 188.05 59.3119C188.188 59.5252 188.364 59.7065 188.578 59.8559C188.791 60.0052 189.026 60.1172 189.282 60.1919C189.538 60.2665 189.794 60.3039 190.05 60.3039C190.306 60.3039 190.562 60.2665 190.818 60.1919C191.074 60.1065 191.308 59.9892 191.522 59.8399C191.735 59.6905 191.906 59.5039 192.034 59.2799C192.172 59.0559 192.242 58.7999 192.242 58.5119C192.242 58.2452 192.178 58.0052 192.05 57.7919C191.932 57.5785 191.772 57.3972 191.57 57.2479C191.367 57.0985 191.132 56.9865 190.866 56.9119C190.599 56.8265 190.322 56.7839 190.034 56.7839C189.746 56.7839 189.468 56.8265 189.202 56.9119C188.946 56.9865 188.716 57.1039 188.514 57.2639C188.322 57.4132 188.162 57.5999 188.034 57.8239C187.916 58.0372 187.858 58.2772 187.858 58.5439ZM201.372 58.8479H195.532V57.5519H203.596L197.884 68.9119H196.284L201.372 58.8479ZM212.534 63.6639C212.534 64.1759 212.422 64.6399 212.198 65.0559C211.985 65.4612 211.691 65.8079 211.318 66.0959C210.955 66.3839 210.529 66.6079 210.038 66.7679C209.558 66.9279 209.046 67.0079 208.502 67.0079C207.937 67.0079 207.409 66.9225 206.918 66.7519C206.438 66.5705 206.022 66.3305 205.67 66.0319C205.318 65.7225 205.041 65.3599 204.838 64.9439C204.635 64.5279 204.534 64.0799 204.534 63.5999C204.534 63.2479 204.598 62.9225 204.726 62.6239C204.854 62.3252 205.014 62.0585 205.206 61.8239C205.409 61.5892 205.638 61.3865 205.894 61.2159C206.15 61.0345 206.406 60.8959 206.662 60.7999C206.427 60.7039 206.203 60.5812 205.99 60.4319C205.777 60.2719 205.59 60.0959 205.43 59.9039C205.27 59.7012 205.142 59.4825 205.046 59.2479C204.961 59.0132 204.918 58.7625 204.918 58.4959C204.918 58.0159 205.025 57.5945 205.238 57.2319C205.462 56.8585 205.745 56.5439 206.086 56.2879C206.438 56.0319 206.827 55.8399 207.254 55.7119C207.681 55.5839 208.107 55.5199 208.534 55.5199C208.961 55.5199 209.387 55.5839 209.814 55.7119C210.251 55.8399 210.641 56.0319 210.982 56.2879C211.334 56.5332 211.617 56.8425 211.83 57.2159C212.054 57.5785 212.166 57.9999 212.166 58.4799C212.166 59.0132 211.99 59.4825 211.638 59.8879C211.286 60.2932 210.87 60.5972 210.39 60.7999C210.678 60.9172 210.95 61.0665 211.206 61.2479C211.473 61.4292 211.702 61.6425 211.894 61.8879C212.086 62.1225 212.241 62.3892 212.358 62.6879C212.475 62.9865 212.534 63.3119 212.534 63.6639ZM211.11 63.5679C211.11 63.2265 211.03 62.9225 210.87 62.6559C210.721 62.3785 210.523 62.1492 210.278 61.9679C210.033 61.7759 209.755 61.6319 209.446 61.5359C209.137 61.4399 208.827 61.3919 208.518 61.3919C208.198 61.3919 207.883 61.4452 207.574 61.5519C207.275 61.6479 207.003 61.7919 206.758 61.9839C206.523 62.1759 206.331 62.4105 206.182 62.6879C206.043 62.9545 205.974 63.2532 205.974 63.5839C205.974 63.9252 206.049 64.2292 206.198 64.4959C206.358 64.7625 206.561 64.9865 206.806 65.1679C207.051 65.3492 207.323 65.4932 207.622 65.5999C207.931 65.6959 208.241 65.7439 208.55 65.7439C208.87 65.7439 209.179 65.6905 209.478 65.5839C209.787 65.4772 210.059 65.3279 210.294 65.1359C210.539 64.9439 210.737 64.7145 210.886 64.4479C211.035 64.1812 211.11 63.8879 211.11 63.5679ZM206.342 58.5439C206.342 58.8319 206.406 59.0879 206.534 59.3119C206.673 59.5252 206.849 59.7065 207.062 59.8559C207.275 60.0052 207.51 60.1172 207.766 60.1919C208.022 60.2665 208.278 60.3039 208.534 60.3039C208.79 60.3039 209.046 60.2665 209.302 60.1919C209.558 60.1065 209.793 59.9892 210.006 59.8399C210.219 59.6905 210.39 59.5039 210.518 59.2799C210.657 59.0559 210.726 58.7999 210.726 58.5119C210.726 58.2452 210.662 58.0052 210.534 57.7919C210.417 57.5785 210.257 57.3972 210.054 57.2479C209.851 57.0985 209.617 56.9865 209.35 56.9119C209.083 56.8265 208.806 56.7839 208.518 56.7839C208.23 56.7839 207.953 56.8265 207.686 56.9119C207.43 56.9865 207.201 57.1039 206.998 57.2639C206.806 57.4132 206.646 57.5999 206.518 57.8239C206.401 58.0372 206.342 58.2772 206.342 58.5439Z" fill="#0E1F51"/>
<rect y="0.879883" width="70" height="70" rx="10" fill="#F7F7F7"/>
<path d="M36.6406 31.2939C36.0547 30.8252 35.1758 30.9424 34.6484 31.5283C34.1797 32.1143 34.2383 32.9932 34.8828 33.5205C35.5273 34.0479 35.9375 34.8096 35.9375 35.6299C35.9375 36.5088 35.5273 37.2705 34.8828 37.7979C34.2383 38.3252 34.1797 39.2041 34.6484 39.79C34.9414 40.1416 35.3516 40.3174 35.7617 40.3174C36.0547 40.3174 36.4062 40.2002 36.6406 40.0244C37.9883 38.9111 38.75 37.3291 38.75 35.6299C38.75 33.9893 37.9883 32.4072 36.6406 31.2939ZM40.2148 26.958C39.5703 26.4307 38.6914 26.5479 38.2227 27.1338C37.6953 27.7197 37.8125 28.5986 38.3984 29.126C40.3906 30.7666 41.5039 33.1104 41.5039 35.6299C41.5039 38.0908 40.3906 40.4932 38.3984 42.1338C37.8125 42.6025 37.6953 43.4814 38.2227 44.0674C38.5156 44.4189 38.8672 44.5947 39.2773 44.5947C39.6289 44.5947 39.9219 44.4775 40.2148 44.3018C42.8516 42.1924 44.375 39.0283 44.375 35.6299C44.375 32.2314 42.8516 29.126 40.2148 26.958ZM43.7891 22.6221C43.2031 22.0947 42.3242 22.2119 41.7969 22.7979C41.3281 23.3838 41.3867 24.2627 41.9727 24.79C45.2539 27.4854 47.1875 31.4111 47.1875 35.6299C47.1875 39.79 45.2539 43.7744 41.9727 46.4697C41.3867 46.9971 41.3281 47.876 41.7969 48.4619C42.0898 48.8135 42.5 48.9893 42.9102 48.9893C43.2031 48.9893 43.4961 48.8721 43.7891 48.6377C47.7148 45.4736 50 40.7275 50 35.6299C50 30.4736 47.7148 25.8447 43.7891 22.6221ZM28.8477 30.8838C29.4336 30.9424 30.0781 30.5908 30.3125 30.0049L32.2461 25.083C32.5391 24.4385 32.2461 23.6768 31.7188 23.3252L27.7344 20.8643C27.207 20.5127 26.4453 20.6299 25.9766 21.0986C17.9492 29.126 17.9492 42.1924 25.9766 50.2197C26.4453 50.6885 27.207 50.8057 27.7344 50.4541L31.7188 47.9932C32.2461 47.6416 32.5391 46.8799 32.2461 46.2354L30.3125 41.3135C30.0781 40.7275 29.4336 40.376 28.8477 40.4346L25.7422 40.7275C24.5703 37.4463 24.5703 33.8721 25.7422 30.5908L28.8477 30.8838Z" fill="#0A80DA"/>
</svg>
