<svg width="113" height="26" viewBox="0 0 113 26" fill="none" xmlns="http://www.w3.org/2000/svg">
<path d="M13.4407 5.80537V20.0054H11.6407V13.5454H3.82074V20.0054H2.02074V5.80537H3.82074V11.9454H11.6407V5.80537H13.4407ZM16.525 20.0054V9.56537H18.285V20.0054H16.525ZM16.525 7.60537V5.40537H18.285V7.60537H16.525ZM26.5567 11.1054C25.6767 11.132 24.8967 11.3587 24.2167 11.7854C23.55 12.212 23.0767 12.8054 22.7967 13.5654V20.0054H21.0367V9.56537H22.6767V11.9854C23.0367 11.2654 23.51 10.672 24.0967 10.2054C24.6833 9.72537 25.31 9.48537 25.9767 9.48537C26.11 9.48537 26.2233 9.48537 26.3167 9.48537C26.41 9.48537 26.49 9.49204 26.5567 9.50537V11.1054ZM32.9428 20.2054C32.1561 20.2054 31.4361 20.0654 30.7828 19.7854C30.1294 19.492 29.5694 19.0987 29.1028 18.6054C28.6361 18.112 28.2694 17.5387 28.0028 16.8854C27.7494 16.2187 27.6228 15.5187 27.6228 14.7854C27.6228 14.052 27.7494 13.3587 28.0028 12.7054C28.2694 12.052 28.6361 11.4787 29.1028 10.9854C29.5828 10.492 30.1494 10.1054 30.8028 9.82537C31.4561 9.53204 32.1761 9.38537 32.9628 9.38537C33.7494 9.38537 34.4628 9.53204 35.1028 9.82537C35.7561 10.1187 36.3094 10.512 36.7628 11.0054C37.2161 11.4854 37.5628 12.052 37.8028 12.7054C38.0561 13.3454 38.1828 14.012 38.1828 14.7054C38.1828 14.852 38.1761 14.9854 38.1628 15.1054C38.1628 15.2254 38.1561 15.3187 38.1428 15.3854H29.4828C29.5228 15.9054 29.6428 16.3787 29.8428 16.8054C30.0428 17.232 30.3028 17.5987 30.6228 17.9054C30.9428 18.212 31.3028 18.452 31.7028 18.6254C32.1161 18.7987 32.5494 18.8854 33.0028 18.8854C33.3228 18.8854 33.6361 18.8454 33.9428 18.7654C34.2494 18.672 34.5361 18.552 34.8028 18.4054C35.0694 18.2587 35.3028 18.0787 35.5028 17.8654C35.7161 17.652 35.8761 17.412 35.9828 17.1454L37.5028 17.5654C37.3294 17.952 37.0894 18.3054 36.7828 18.6254C36.4894 18.9454 36.1428 19.2254 35.7428 19.4654C35.3561 19.692 34.9228 19.872 34.4428 20.0054C33.9628 20.1387 33.4628 20.2054 32.9428 20.2054ZM36.5228 14.0854C36.4828 13.592 36.3561 13.1387 36.1428 12.7254C35.9428 12.2987 35.6828 11.9387 35.3628 11.6454C35.0561 11.352 34.6961 11.1254 34.2828 10.9654C33.8694 10.792 33.4294 10.7054 32.9628 10.7054C32.4961 10.7054 32.0561 10.792 31.6428 10.9654C31.2294 11.1254 30.8628 11.3587 30.5428 11.6654C30.2361 11.9587 29.9828 12.312 29.7828 12.7254C29.5961 13.1387 29.4828 13.592 29.4428 14.0854H36.5228ZM47.2387 9.16537V20.0054H45.4387V5.80537H46.8387L55.6387 16.8654V5.82537H57.4387V20.0054H55.9187L47.2387 9.16537ZM65.1093 20.2054C64.3227 20.2054 63.6027 20.0587 62.9493 19.7654C62.3093 19.472 61.756 19.0787 61.2893 18.5854C60.836 18.092 60.4827 17.5187 60.2293 16.8654C59.976 16.212 59.8493 15.5254 59.8493 14.8054C59.8493 14.072 59.976 13.3787 60.2293 12.7254C60.496 12.072 60.856 11.4987 61.3093 11.0054C61.776 10.512 62.3293 10.1187 62.9693 9.82537C63.6227 9.53204 64.336 9.38537 65.1093 9.38537C65.8827 9.38537 66.596 9.53204 67.2493 9.82537C67.9027 10.1187 68.456 10.512 68.9093 11.0054C69.376 11.4987 69.736 12.072 69.9893 12.7254C70.256 13.3787 70.3893 14.072 70.3893 14.8054C70.3893 15.5254 70.2627 16.212 70.0093 16.8654C69.756 17.5187 69.396 18.092 68.9293 18.5854C68.4627 19.0787 67.9027 19.472 67.2493 19.7654C66.6093 20.0587 65.896 20.2054 65.1093 20.2054ZM61.6493 14.8254C61.6493 15.372 61.736 15.8787 61.9093 16.3454C62.096 16.812 62.3427 17.2187 62.6493 17.5654C62.9693 17.912 63.336 18.1854 63.7493 18.3854C64.176 18.5854 64.6293 18.6854 65.1093 18.6854C65.5893 18.6854 66.036 18.5854 66.4493 18.3854C66.876 18.1854 67.2493 17.912 67.5693 17.5654C67.8893 17.2054 68.136 16.792 68.3093 16.3254C68.496 15.8454 68.5893 15.332 68.5893 14.7854C68.5893 14.252 68.496 13.752 68.3093 13.2854C68.136 12.8054 67.8893 12.392 67.5693 12.0454C67.2493 11.6854 66.876 11.4054 66.4493 11.2054C66.036 11.0054 65.5893 10.9054 65.1093 10.9054C64.6293 10.9054 64.176 11.012 63.7493 11.2254C63.336 11.4254 62.9693 11.7054 62.6493 12.0654C62.3427 12.412 62.096 12.8254 61.9093 13.3054C61.736 13.772 61.6493 14.2787 61.6493 14.8254ZM85.2318 9.56537H86.9318L82.4918 20.0054H81.0318L78.9318 14.9054L76.8518 20.0054H75.3918L70.9518 9.56537H72.6318L76.2318 18.2654L77.9918 13.9254L76.1918 9.58537H77.6518L78.9318 12.9254L80.2118 9.58537H81.6718L79.8918 13.9254L81.6518 18.2654L85.2318 9.56537Z" fill="white"/>
<path d="M97.7734 14.2856L111.773 14.2856" stroke="white" stroke-width="2" stroke-linecap="round" stroke-linejoin="round"/>
<path d="M104.773 7.28564L111.773 14.2856L104.773 21.2856" stroke="white" stroke-width="2" stroke-linecap="round" stroke-linejoin="round"/>
</svg>
