<svg width="151" height="44" viewBox="0 0 151 44" fill="none" xmlns="http://www.w3.org/2000/svg">
<rect width="150.805" height="44" rx="5" fill="#0A80DA"/>
<path d="M28.496 16.64V28H27.056V22.832H20.8V28H19.36V16.64H20.8V21.552H27.056V16.64H28.496ZM30.9634 28V19.648H32.3714V28H30.9634ZM30.9634 18.08V16.32H32.3714V18.08H30.9634ZM38.9888 20.88C38.2848 20.9013 37.6608 21.0827 37.1168 21.424C36.5834 21.7653 36.2048 22.24 35.9808 22.848V28H34.5728V19.648H35.8848V21.584C36.1728 21.008 36.5514 20.5333 37.0208 20.16C37.4901 19.776 37.9914 19.584 38.5248 19.584C38.6314 19.584 38.7221 19.584 38.7968 19.584C38.8714 19.584 38.9354 19.5893 38.9888 19.6V20.88ZM44.0976 28.16C43.4683 28.16 42.8923 28.048 42.3696 27.824C41.847 27.5893 41.399 27.2747 41.0256 26.88C40.6523 26.4853 40.359 26.0267 40.1456 25.504C39.943 24.9707 39.8416 24.4107 39.8416 23.824C39.8416 23.2373 39.943 22.6827 40.1456 22.16C40.359 21.6373 40.6523 21.1787 41.0256 20.784C41.4096 20.3893 41.863 20.08 42.3856 19.856C42.9083 19.6213 43.4843 19.504 44.1136 19.504C44.743 19.504 45.3136 19.6213 45.8256 19.856C46.3483 20.0907 46.791 20.4053 47.1536 20.8C47.5163 21.184 47.7936 21.6373 47.9856 22.16C48.1883 22.672 48.2896 23.2053 48.2896 23.76C48.2896 23.8773 48.2843 23.984 48.2736 24.08C48.2736 24.176 48.2683 24.2507 48.2576 24.304H41.3296C41.3616 24.72 41.4576 25.0987 41.6176 25.44C41.7776 25.7813 41.9856 26.0747 42.2416 26.32C42.4976 26.5653 42.7856 26.7573 43.1056 26.896C43.4363 27.0347 43.783 27.104 44.1456 27.104C44.4016 27.104 44.6523 27.072 44.8976 27.008C45.143 26.9333 45.3723 26.8373 45.5856 26.72C45.799 26.6027 45.9856 26.4587 46.1456 26.288C46.3163 26.1173 46.4443 25.9253 46.5296 25.712L47.7456 26.048C47.607 26.3573 47.415 26.64 47.1696 26.896C46.935 27.152 46.6576 27.376 46.3376 27.568C46.0283 27.7493 45.6816 27.8933 45.2976 28C44.9136 28.1067 44.5136 28.16 44.0976 28.16ZM46.9616 23.264C46.9296 22.8693 46.8283 22.5067 46.6576 22.176C46.4976 21.8347 46.2896 21.5467 46.0336 21.312C45.7883 21.0773 45.5003 20.896 45.1696 20.768C44.839 20.6293 44.487 20.56 44.1136 20.56C43.7403 20.56 43.3883 20.6293 43.0576 20.768C42.727 20.896 42.4336 21.0827 42.1776 21.328C41.9323 21.5627 41.7296 21.8453 41.5696 22.176C41.4203 22.5067 41.3296 22.8693 41.2976 23.264H46.9616ZM54.0944 28V16.64H58.0304C58.937 16.64 59.7317 16.7893 60.4144 17.088C61.1077 17.3867 61.6837 17.792 62.1424 18.304C62.601 18.816 62.9424 19.4187 63.1664 20.112C63.401 20.7947 63.5184 21.5253 63.5184 22.304C63.5184 23.168 63.3904 23.952 63.1344 24.656C62.8784 25.3493 62.5104 25.9467 62.0304 26.448C61.5504 26.9387 60.969 27.3227 60.2864 27.6C59.6144 27.8667 58.8624 28 58.0304 28H54.0944ZM62.0624 22.304C62.0624 21.664 61.9717 21.0773 61.7904 20.544C61.6197 20 61.3584 19.536 61.0064 19.152C60.665 18.768 60.2437 18.4693 59.7424 18.256C59.241 18.032 58.6704 17.92 58.0304 17.92H55.5344V26.72H58.0304C58.681 26.72 59.257 26.608 59.7584 26.384C60.2704 26.16 60.6917 25.8507 61.0224 25.456C61.3637 25.0613 61.6197 24.5973 61.7904 24.064C61.9717 23.52 62.0624 22.9333 62.0624 22.304ZM69.0508 28.16C68.4214 28.16 67.8454 28.048 67.3228 27.824C66.8001 27.5893 66.3521 27.2747 65.9788 26.88C65.6054 26.4853 65.3121 26.0267 65.0988 25.504C64.8961 24.9707 64.7948 24.4107 64.7948 23.824C64.7948 23.2373 64.8961 22.6827 65.0988 22.16C65.3121 21.6373 65.6054 21.1787 65.9788 20.784C66.3628 20.3893 66.8161 20.08 67.3388 19.856C67.8614 19.6213 68.4374 19.504 69.0668 19.504C69.6961 19.504 70.2668 19.6213 70.7788 19.856C71.3014 20.0907 71.7441 20.4053 72.1068 20.8C72.4694 21.184 72.7468 21.6373 72.9388 22.16C73.1414 22.672 73.2428 23.2053 73.2428 23.76C73.2428 23.8773 73.2374 23.984 73.2268 24.08C73.2268 24.176 73.2214 24.2507 73.2108 24.304H66.2828C66.3148 24.72 66.4107 25.0987 66.5707 25.44C66.7308 25.7813 66.9388 26.0747 67.1948 26.32C67.4508 26.5653 67.7388 26.7573 68.0588 26.896C68.3894 27.0347 68.7361 27.104 69.0988 27.104C69.3548 27.104 69.6054 27.072 69.8508 27.008C70.0961 26.9333 70.3254 26.8373 70.5388 26.72C70.7521 26.6027 70.9388 26.4587 71.0988 26.288C71.2694 26.1173 71.3974 25.9253 71.4828 25.712L72.6988 26.048C72.5601 26.3573 72.3681 26.64 72.1228 26.896C71.8881 27.152 71.6108 27.376 71.2908 27.568C70.9814 27.7493 70.6348 27.8933 70.2508 28C69.8668 28.1067 69.4668 28.16 69.0508 28.16ZM71.9148 23.264C71.8828 22.8693 71.7814 22.5067 71.6108 22.176C71.4508 21.8347 71.2428 21.5467 70.9868 21.312C70.7414 21.0773 70.4534 20.896 70.1228 20.768C69.7921 20.6293 69.4401 20.56 69.0668 20.56C68.6934 20.56 68.3414 20.6293 68.0108 20.768C67.6801 20.896 67.3868 21.0827 67.1308 21.328C66.8854 21.5627 66.6828 21.8453 66.5228 22.176C66.3734 22.5067 66.2828 22.8693 66.2508 23.264H71.9148ZM76.9731 28L73.6771 19.648H75.1331L77.7731 26.768L80.4291 19.648H81.7731L78.4771 28H76.9731ZM86.832 28.16C86.2027 28.16 85.6267 28.048 85.104 27.824C84.5813 27.5893 84.1333 27.2747 83.76 26.88C83.3867 26.4853 83.0933 26.0267 82.88 25.504C82.6773 24.9707 82.576 24.4107 82.576 23.824C82.576 23.2373 82.6773 22.6827 82.88 22.16C83.0933 21.6373 83.3867 21.1787 83.76 20.784C84.144 20.3893 84.5973 20.08 85.12 19.856C85.6427 19.6213 86.2187 19.504 86.848 19.504C87.4773 19.504 88.048 19.6213 88.56 19.856C89.0827 20.0907 89.5253 20.4053 89.888 20.8C90.2507 21.184 90.528 21.6373 90.72 22.16C90.9227 22.672 91.024 23.2053 91.024 23.76C91.024 23.8773 91.0187 23.984 91.008 24.08C91.008 24.176 91.0027 24.2507 90.992 24.304H84.064C84.096 24.72 84.192 25.0987 84.352 25.44C84.512 25.7813 84.72 26.0747 84.976 26.32C85.232 26.5653 85.52 26.7573 85.84 26.896C86.1707 27.0347 86.5173 27.104 86.88 27.104C87.136 27.104 87.3867 27.072 87.632 27.008C87.8773 26.9333 88.1067 26.8373 88.32 26.72C88.5333 26.6027 88.72 26.4587 88.88 26.288C89.0507 26.1173 89.1787 25.9253 89.264 25.712L90.48 26.048C90.3413 26.3573 90.1493 26.64 89.904 26.896C89.6693 27.152 89.392 27.376 89.072 27.568C88.7627 27.7493 88.416 27.8933 88.032 28C87.648 28.1067 87.248 28.16 86.832 28.16ZM89.696 23.264C89.664 22.8693 89.5627 22.5067 89.392 22.176C89.232 21.8347 89.024 21.5467 88.768 21.312C88.5227 21.0773 88.2347 20.896 87.904 20.768C87.5733 20.6293 87.2213 20.56 86.848 20.56C86.4747 20.56 86.1227 20.6293 85.792 20.768C85.4613 20.896 85.168 21.0827 84.912 21.328C84.6667 21.5627 84.464 21.8453 84.304 22.176C84.1547 22.5067 84.064 22.8693 84.032 23.264H89.696ZM92.5891 16.32H93.9971V25.84C93.9971 26.1493 94.0771 26.3947 94.2371 26.576C94.4078 26.7467 94.6425 26.832 94.9411 26.832C95.0585 26.832 95.1971 26.816 95.3571 26.784C95.5171 26.7413 95.6665 26.6933 95.8051 26.64L96.0291 27.776C95.7945 27.872 95.5171 27.952 95.1971 28.016C94.8771 28.08 94.5945 28.112 94.3491 28.112C93.8051 28.112 93.3731 27.9573 93.0531 27.648C92.7438 27.3387 92.5891 26.9067 92.5891 26.352V16.32ZM100.69 28.16C100.061 28.16 99.4849 28.0427 98.9623 27.808C98.4503 27.5733 98.0076 27.2587 97.6343 26.864C97.2716 26.4693 96.9889 26.0107 96.7863 25.488C96.5836 24.9653 96.4823 24.416 96.4823 23.84C96.4823 23.2533 96.5836 22.6987 96.7863 22.176C96.9996 21.6533 97.2876 21.1947 97.6503 20.8C98.0236 20.4053 98.4663 20.0907 98.9783 19.856C99.5009 19.6213 100.072 19.504 100.69 19.504C101.309 19.504 101.88 19.6213 102.402 19.856C102.925 20.0907 103.368 20.4053 103.73 20.8C104.104 21.1947 104.392 21.6533 104.594 22.176C104.808 22.6987 104.914 23.2533 104.914 23.84C104.914 24.416 104.813 24.9653 104.61 25.488C104.408 26.0107 104.12 26.4693 103.746 26.864C103.373 27.2587 102.925 27.5733 102.402 27.808C101.89 28.0427 101.32 28.16 100.69 28.16ZM97.9223 23.856C97.9223 24.2933 97.9916 24.6987 98.1303 25.072C98.2796 25.4453 98.4769 25.7707 98.7223 26.048C98.9783 26.3253 99.2716 26.544 99.6023 26.704C99.9436 26.864 100.306 26.944 100.69 26.944C101.074 26.944 101.432 26.864 101.762 26.704C102.104 26.544 102.402 26.3253 102.658 26.048C102.914 25.76 103.112 25.4293 103.25 25.056C103.4 24.672 103.474 24.2613 103.474 23.824C103.474 23.3973 103.4 22.9973 103.25 22.624C103.112 22.24 102.914 21.9093 102.658 21.632C102.402 21.344 102.104 21.12 101.762 20.96C101.432 20.8 101.074 20.72 100.69 20.72C100.306 20.72 99.9436 20.8053 99.6023 20.976C99.2716 21.136 98.9783 21.36 98.7223 21.648C98.4769 21.9253 98.2796 22.256 98.1303 22.64C97.9916 23.0133 97.9223 23.4187 97.9223 23.856ZM111.069 28.16C110.375 28.16 109.762 27.9893 109.229 27.648C108.706 27.3067 108.29 26.8747 107.981 26.352V31.408H106.573V19.648H107.821V21.216C108.151 20.704 108.578 20.2933 109.101 19.984C109.634 19.664 110.221 19.504 110.861 19.504C111.437 19.504 111.965 19.6213 112.445 19.856C112.925 20.0907 113.341 20.4107 113.693 20.816C114.045 21.2107 114.317 21.6693 114.509 22.192C114.711 22.7147 114.813 23.2587 114.813 23.824C114.813 24.4213 114.722 24.9867 114.541 25.52C114.359 26.0427 114.103 26.5013 113.773 26.896C113.442 27.28 113.047 27.5893 112.589 27.824C112.13 28.048 111.623 28.16 111.069 28.16ZM110.637 26.944C111.053 26.944 111.426 26.8587 111.757 26.688C112.098 26.5067 112.386 26.272 112.621 25.984C112.866 25.6853 113.053 25.3493 113.181 24.976C113.309 24.6027 113.373 24.2187 113.373 23.824C113.373 23.408 113.298 23.0133 113.149 22.64C112.999 22.256 112.797 21.9253 112.541 21.648C112.285 21.36 111.981 21.136 111.629 20.976C111.287 20.8053 110.914 20.72 110.509 20.72C110.253 20.72 109.986 20.7733 109.709 20.88C109.442 20.976 109.186 21.1093 108.941 21.28C108.706 21.44 108.498 21.6373 108.317 21.872C108.146 22.096 108.034 22.336 107.981 22.592V24.976C108.098 25.2533 108.247 25.5147 108.429 25.76C108.61 25.9947 108.818 26.2027 109.053 26.384C109.287 26.5547 109.538 26.6933 109.805 26.8C110.071 26.896 110.349 26.944 110.637 26.944ZM120.223 28.16C119.593 28.16 119.017 28.048 118.495 27.824C117.972 27.5893 117.524 27.2747 117.151 26.88C116.777 26.4853 116.484 26.0267 116.271 25.504C116.068 24.9707 115.967 24.4107 115.967 23.824C115.967 23.2373 116.068 22.6827 116.271 22.16C116.484 21.6373 116.777 21.1787 117.151 20.784C117.535 20.3893 117.988 20.08 118.511 19.856C119.033 19.6213 119.609 19.504 120.239 19.504C120.868 19.504 121.439 19.6213 121.951 19.856C122.473 20.0907 122.916 20.4053 123.279 20.8C123.641 21.184 123.919 21.6373 124.111 22.16C124.313 22.672 124.415 23.2053 124.415 23.76C124.415 23.8773 124.409 23.984 124.399 24.08C124.399 24.176 124.393 24.2507 124.383 24.304H117.455C117.487 24.72 117.583 25.0987 117.743 25.44C117.903 25.7813 118.111 26.0747 118.367 26.32C118.623 26.5653 118.911 26.7573 119.231 26.896C119.561 27.0347 119.908 27.104 120.271 27.104C120.527 27.104 120.777 27.072 121.023 27.008C121.268 26.9333 121.497 26.8373 121.711 26.72C121.924 26.6027 122.111 26.4587 122.271 26.288C122.441 26.1173 122.569 25.9253 122.655 25.712L123.871 26.048C123.732 26.3573 123.54 26.64 123.295 26.896C123.06 27.152 122.783 27.376 122.463 27.568C122.153 27.7493 121.807 27.8933 121.423 28C121.039 28.1067 120.639 28.16 120.223 28.16ZM123.087 23.264C123.055 22.8693 122.953 22.5067 122.783 22.176C122.623 21.8347 122.415 21.5467 122.159 21.312C121.913 21.0773 121.625 20.896 121.295 20.768C120.964 20.6293 120.612 20.56 120.239 20.56C119.865 20.56 119.513 20.6293 119.183 20.768C118.852 20.896 118.559 21.0827 118.303 21.328C118.057 21.5627 117.855 21.8453 117.695 22.176C117.545 22.5067 117.455 22.8693 117.423 23.264H123.087ZM130.364 20.88C129.66 20.9013 129.036 21.0827 128.492 21.424C127.958 21.7653 127.58 22.24 127.356 22.848V28H125.948V19.648H127.26V21.584C127.548 21.008 127.926 20.5333 128.396 20.16C128.865 19.776 129.366 19.584 129.9 19.584C130.006 19.584 130.097 19.584 130.172 19.584C130.246 19.584 130.31 19.5893 130.364 19.6V20.88ZM134.642 28.16C133.97 28.16 133.309 28.0587 132.658 27.856C132.007 27.6427 131.447 27.3387 130.978 26.944L131.586 26C132.077 26.3733 132.567 26.656 133.058 26.848C133.549 27.0293 134.066 27.12 134.61 27.12C135.218 27.12 135.698 27.0027 136.05 26.768C136.413 26.5227 136.594 26.1813 136.594 25.744C136.594 25.5413 136.546 25.3707 136.45 25.232C136.354 25.0827 136.21 24.9547 136.018 24.848C135.826 24.7413 135.581 24.6453 135.282 24.56C134.983 24.4747 134.637 24.384 134.242 24.288C133.741 24.16 133.309 24.0373 132.946 23.92C132.583 23.8027 132.285 23.664 132.05 23.504C131.815 23.344 131.645 23.152 131.538 22.928C131.431 22.704 131.378 22.4267 131.378 22.096C131.378 21.68 131.458 21.312 131.618 20.992C131.789 20.6613 132.018 20.3893 132.306 20.176C132.594 19.952 132.93 19.7867 133.314 19.68C133.709 19.5627 134.13 19.504 134.578 19.504C135.207 19.504 135.794 19.6053 136.338 19.808C136.882 20.0107 137.341 20.2773 137.714 20.608L137.074 21.456C136.722 21.1467 136.327 20.9173 135.89 20.768C135.453 20.608 135.005 20.528 134.546 20.528C134.034 20.528 133.597 20.64 133.234 20.864C132.882 21.0773 132.706 21.424 132.706 21.904C132.706 22.096 132.738 22.256 132.802 22.384C132.877 22.512 132.994 22.624 133.154 22.72C133.314 22.816 133.517 22.9013 133.762 22.976C134.018 23.0507 134.322 23.1307 134.674 23.216C135.229 23.344 135.709 23.4773 136.114 23.616C136.53 23.744 136.871 23.8987 137.138 24.08C137.415 24.2613 137.618 24.4747 137.746 24.72C137.885 24.9653 137.954 25.264 137.954 25.616C137.954 26.3947 137.655 27.0133 137.058 27.472C136.461 27.9307 135.655 28.16 134.642 28.16Z" fill="white"/>
</svg>
