<svg width="40" height="38" viewBox="0 0 40 38" fill="none" xmlns="http://www.w3.org/2000/svg">
<path d="M32.6562 12.9453C36.875 14.3516 40 16.6953 40 19.0391C40 21.5391 36.7188 23.9609 32.1875 25.4453C31.9531 25.5234 31.7188 25.6016 31.4844 25.6797C31.5625 25.9922 31.6406 26.3828 31.7188 26.6953C32.5781 31.2266 31.875 34.8984 29.7656 36.1484C27.7344 37.3203 24.4531 36.1484 21.0938 33.2578C20.7031 32.9453 20.3906 32.6328 20 32.3203C19.7656 32.5547 19.4531 32.7891 19.2188 33.0234C15.7812 36.0703 12.1875 37.3203 10.0781 36.0703C8.04688 34.8984 7.42188 31.4609 8.20312 27.1641C8.35938 26.6953 8.4375 26.2266 8.51562 25.7578C8.20312 25.6797 7.8125 25.5234 7.5 25.4453C3.125 23.9609 0 21.4609 0 19.0391C0 16.6953 2.96875 14.4297 7.10938 12.9453C7.57812 12.7891 8.04688 12.6328 8.59375 12.4766C8.4375 12.0859 8.35938 11.6172 8.28125 11.2266C7.42188 6.77344 8.04688 3.25781 10.0781 2.08594C12.1875 0.835938 15.7812 2.16406 19.375 5.28906C19.5312 5.52344 19.7656 5.67969 20 5.91406C20.3125 5.60156 20.625 5.28906 20.9375 5.05469C24.375 2.08594 27.7344 0.835938 29.7656 2.00781C31.875 3.25781 32.5 7.00781 31.5625 11.6172C31.4844 11.9297 31.4062 12.2422 31.4062 12.5547C31.7969 12.6328 32.1875 12.7891 32.6562 12.9453ZM22.0312 6.30469C21.7188 6.53906 21.4844 6.85156 21.1719 7.08594C22.3438 8.41406 23.4375 9.82031 24.4531 11.3047C26.25 11.4609 27.9688 11.6953 29.7656 12.0859C29.8438 11.8516 29.8438 11.6172 29.9219 11.3047C30.7812 7.32031 30.2344 4.19531 28.9062 3.49219C27.6562 2.78906 25 3.72656 22.0312 6.30469ZM13.0469 23.1016C12.6562 22.3984 12.2656 21.7734 11.875 21.0703C11.4062 22.2422 11.0156 23.4141 10.625 24.5078C11.7969 24.8203 13.0469 24.9766 14.2969 25.1328C13.8281 24.4297 13.4375 23.8047 13.0469 23.1016ZM10.625 13.7266C11.0156 14.8203 11.4062 15.9141 11.875 17.0859C12.2656 16.3828 12.6562 15.7578 13.0469 15.0547C13.4375 14.4297 13.8281 13.7266 14.2188 13.1016C12.9688 13.2578 11.7969 13.4141 10.625 13.7266ZM12.8125 19.1172C13.3594 20.1328 13.9062 21.2266 14.4531 22.2422C15.0781 23.2578 15.7031 24.2734 16.4062 25.2891C17.5781 25.3672 18.75 25.4453 20 25.4453C21.1719 25.4453 22.4219 25.3672 23.5938 25.2891C24.2188 24.2734 24.8438 23.2578 25.4688 22.2422C26.0938 21.2266 26.6406 20.1328 27.1094 19.0391C26.6406 17.9453 26.0156 16.9297 25.4688 15.9141C24.8438 14.8984 24.2188 13.8828 23.5156 12.8672C22.4219 12.7891 21.1719 12.7109 20 12.7109C18.75 12.7109 17.5781 12.7891 16.4062 12.8672C15.7031 13.8828 15.0781 14.8984 14.4531 15.9141C13.9062 16.9297 13.2812 18.0234 12.8125 19.1172ZM26.875 23.1016C26.4844 23.7266 26.0938 24.4297 25.7031 25.0547C26.9531 24.9766 28.125 24.7422 29.375 24.4297C28.9844 23.2578 28.5156 22.1641 28.0469 20.9922C27.6562 21.6953 27.3438 22.3984 26.875 23.1016ZM28.0469 17.0859C28.5156 15.9922 28.9062 14.8984 29.2969 13.7266C28.2031 13.4922 26.9531 13.2578 25.7031 13.1016C26.0938 13.7266 26.4844 14.4297 26.875 15.0547C27.2656 15.7578 27.6562 16.3828 28.0469 17.0859ZM20 8.33594C19.2188 9.19531 18.4375 10.1328 17.6562 11.1484C19.2188 11.0703 20.7812 11.0703 22.2656 11.1484C21.5625 10.1328 20.7812 9.19531 20 8.33594ZM10.9375 3.49219C9.6875 4.27344 9.21875 7.08594 9.92188 10.8359C10 11.3047 10.0781 11.6953 10.2344 12.0859C11.9531 11.6953 13.6719 11.4609 15.4688 11.3047C16.4844 9.82031 17.5781 8.41406 18.8281 7.08594C18.5938 6.92969 18.4375 6.77344 18.2031 6.53906C15.1562 3.88281 12.2656 2.78906 10.9375 3.49219ZM8.98438 24.1172C9.53125 22.3984 10.1562 20.6797 10.9375 19.1172C10.2344 17.4766 9.53125 15.8359 9.0625 14.1172C8.59375 14.2734 8.125 14.3516 7.65625 14.5078C4.14062 15.7578 1.64062 17.6328 1.64062 19.0391C1.79688 19.9766 2.34375 20.8359 3.125 21.3828C4.45312 22.4766 6.40625 23.2578 8.04688 23.8047C8.35938 23.9609 8.67188 24.0391 8.98438 24.1172ZM18.125 31.7734C18.3594 31.5391 18.5938 31.3047 18.8281 31.0703C17.6562 29.7422 16.4844 28.3359 15.4688 26.9297C13.6719 26.7734 11.9531 26.5391 10.1562 26.1484C10.0781 26.5391 10 27.0078 9.92188 27.4766C9.21875 31.1484 9.6875 33.8828 10.9375 34.6641C11.875 34.9766 12.8125 34.9766 13.6719 34.5078C15.3125 33.8828 16.7969 32.9453 18.125 31.7734ZM20 29.8984C20.8594 28.9609 21.6406 28.0234 22.3438 27.0078C21.5625 27.0859 20.7812 27.0859 20 27.0859C19.2188 27.0859 18.4375 27.0859 17.6562 27.0078C18.4375 28.1016 19.2188 29.0391 20 29.8984ZM30.2344 32.2422C30.4688 30.5234 30.3906 28.7266 30.0781 27.0078C30 26.6953 29.9219 26.3828 29.8438 26.0703C28.0469 26.4609 26.3281 26.7734 24.5312 26.9297C23.5156 28.4141 22.4219 29.7422 21.1719 31.0703C21.5625 31.3828 21.875 31.6953 22.1875 32.0078C25.0781 34.4297 27.7344 35.3672 28.9844 34.6641C29.6875 34.0391 30.1562 33.1797 30.2344 32.2422ZM31.6406 23.8047C35.5469 22.5547 38.2812 20.5234 38.2812 19.0391C38.2812 17.6328 35.7031 15.7578 32.1094 14.5078C31.7188 14.3516 31.3281 14.2734 30.9375 14.1172C30.3906 15.8359 29.7656 17.4766 28.9844 19.0391C29.7656 20.6797 30.4688 22.3203 31.0156 24.0391C31.25 23.9609 31.4062 23.8828 31.6406 23.8047ZM20 22.6328C17.9688 22.6328 16.4062 21.0703 16.4062 19.0391C16.4062 17.0859 17.9688 15.5234 20 15.5234C21.9531 15.5234 23.5156 17.0859 23.5156 19.0391C23.5156 21.0703 21.9531 22.6328 20 22.6328Z" fill="white"/>
</svg>
