<svg width="115" height="22" viewBox="0 0 115 22" fill="none" xmlns="http://www.w3.org/2000/svg">
<path d="M11.0685 0.717407L14.2083 7.03669L21.1885 8.07001L16.1488 13.0089L17.323 19.9668L11.0685 16.6999L4.81402 19.9668L5.98829 13.0089L0.948532 8.07001L7.92877 7.03669L11.0685 0.717407Z" fill="#FEA500"/>
<path d="M34.3498 0.717285L37.4895 7.03657L44.4698 8.06989L39.43 13.0087L40.6043 19.9667L34.3498 16.6997L28.0953 19.9667L29.2695 13.0087L24.2298 8.06989L31.21 7.03657L34.3498 0.717285Z" fill="#FEA500"/>
<path d="M57.631 0.717285L60.7708 7.03657L67.751 8.06989L62.7113 13.0087L63.8855 19.9667L57.631 16.6997L51.3765 19.9667L52.5508 13.0087L47.511 8.06989L54.4913 7.03657L57.631 0.717285Z" fill="#FEA500"/>
<path d="M80.9142 0.717285L84.054 7.03657L91.0342 8.06989L85.9945 13.0087L87.1687 19.9667L80.9142 16.6997L74.6597 19.9667L75.834 13.0087L70.7942 8.06989L77.7745 7.03657L80.9142 0.717285Z" fill="#FEA500"/>
<path d="M104.195 0.717285L107.335 7.03657L114.315 8.06989L109.276 13.0087L110.45 19.9667L104.195 16.6997L97.941 19.9667L99.1152 13.0087L94.0755 8.06989L101.056 7.03657L104.195 0.717285Z" fill="#FEA500"/>
</svg>
