<svg width="50" height="22" viewBox="0 0 50 22" fill="none" xmlns="http://www.w3.org/2000/svg">
<path d="M30.7031 1.35156C30.7031 1.35156 29.2969 1.35156 28.5938 1.74219C27.5781 2.21094 27.1875 3.14844 27.1875 5.57031C27.1875 5.57031 27.7344 5.02344 28.4375 4.78906C30.8594 3.92969 30.7031 2.36719 30.7031 1.35156ZM21.6406 4.16406C22.1094 2.05469 24.0625 1.11719 25.9375 1.35156L20.8594 20.7266C20.8594 20.7266 19.1406 20.8828 18.2812 20.4141C17.1875 19.8672 16.6406 19.4766 16.0156 16.8203C15.3906 14.4766 13.75 7.52344 13.5938 7.05469C13.2031 5.96094 12.7344 5.88281 12.3438 7.05469C12.1875 7.52344 10.5469 14.4766 9.92188 16.8203C9.29688 19.4766 8.75 19.8672 7.65625 20.4141C6.79688 20.8828 5.07812 20.7266 5.07812 20.7266L0 1.35156C1.79688 1.11719 3.82812 2.05469 4.29688 4.16406L6.95312 14.4766L9.21875 6.03906C9.76562 3.46094 10.8594 2.21094 12.9688 2.21094C15.1562 2.21094 16.1719 3.53906 16.7188 6.03906L18.9844 14.4766L21.6406 4.16406ZM30.7031 4.55469V5.25781V16.9766C30.7031 19.3984 30.4688 19.9453 29.375 20.4922C28.5156 20.8828 27.1875 20.7266 27.1875 20.7266V8.85156C27.1875 7.21094 27.0312 6.66406 28.2031 6.11719C28.75 5.88281 29.1406 5.72656 29.6094 5.49219C30.3906 5.02344 30.7031 4.55469 30.7031 4.55469ZM43.4375 11.1172L49.9219 20.7266C49.9219 20.7266 47.1094 21.1172 45.7812 19.8672C44.6875 18.9297 43.9062 17.6797 41.6406 14.3203C41.5625 14.3203 41.1719 13.5391 40.625 14.3203C37.8906 18.3047 37.4219 19.0859 36.4844 19.8672C35.1562 21.1172 32.2656 20.7266 32.2656 20.7266L38.75 11.1172L32.2656 1.42969C32.2656 1.42969 35 0.960938 36.4062 2.21094C37.4219 3.14844 38.2812 4.55469 40.625 7.91406C41.1719 8.69531 41.5625 7.91406 41.6406 7.91406C43.9844 4.55469 44.8438 3.14844 45.8594 2.21094C47.1875 0.960938 50 1.42969 50 1.42969L43.4375 11.1172Z" fill="white"/>
</svg>
