<svg width="40" height="40" viewBox="0 0 40 40" fill="none" xmlns="http://www.w3.org/2000/svg">
<path d="M4.76562 13.3203C3.82812 15.3516 3.35938 17.6953 3.35938 20.0391C3.35938 26.6797 7.1875 32.3047 12.7344 35.0391L4.76562 13.3203ZM31.1719 19.2578C31.1719 20.6641 30.625 22.3047 29.9219 24.5703L28.2812 30.1172L22.2656 12.3047C23.2812 12.2266 24.1406 12.1484 24.1406 12.1484C25.0781 11.9922 24.9219 10.6641 24.0625 10.7422C24.0625 10.7422 21.3281 10.9766 19.6094 10.9766C17.9688 10.9766 15.2344 10.7422 15.2344 10.7422C14.375 10.6641 14.2188 12.0703 15.1562 12.1484C15.1562 12.1484 16.0156 12.2266 16.875 12.3047L19.4531 19.3359L15.8594 30.2734L9.76562 12.3047C10.7812 12.2266 11.7188 12.1484 11.7188 12.1484C12.5781 11.9922 12.5 10.6641 11.5625 10.7422C11.5625 10.7422 8.90625 10.9766 7.10938 10.9766C6.79688 10.9766 6.48438 10.9766 6.09375 10.9766C9.0625 6.44531 14.1406 3.47656 20 3.47656C24.2969 3.47656 28.2031 5.11719 31.1719 7.85156C31.0938 7.77344 31.0156 7.77344 30.9375 7.77344C29.375 7.77344 28.2031 9.25781 28.2031 10.7422C28.2031 12.1484 28.9844 13.3203 29.8438 14.6484C30.4688 15.7422 31.1719 17.1484 31.1719 19.2578ZM20.2344 21.5234L25.3906 35.5078C25.3906 35.5859 25.4688 35.6641 25.4688 35.7422C23.75 36.3672 21.875 36.6797 20 36.6797C18.3594 36.6797 16.7969 36.4453 15.2344 36.0547L20.2344 21.5234ZM34.5312 12.0703C35.8594 14.4922 36.5625 17.1484 36.5625 20.0391C36.5625 26.2109 33.2812 31.5234 28.2812 34.4141L33.3594 19.7266C34.375 17.3828 34.6875 15.5078 34.6875 13.7891C34.6875 13.1641 34.6094 12.6172 34.5312 12.0703ZM39.375 20.0391C39.375 9.41406 30.625 0.664062 20 0.664062C9.29688 0.664062 0.625 9.41406 0.625 20.0391C0.625 30.7422 9.29688 39.4141 20 39.4141C30.625 39.4141 39.375 30.7422 39.375 20.0391ZM38.4375 20.0391C38.4375 30.2734 30.1562 38.5547 20 38.5547C9.76562 38.5547 1.48438 30.2734 1.48438 20.0391C1.48438 9.88281 9.76562 1.60156 20 1.60156C30.1562 1.60156 38.4375 9.88281 38.4375 20.0391Z" fill="white"/>
</svg>
